<svg width="132" height="109" viewBox="0 0 132 109" fill="none" xmlns="http://www.w3.org/2000/svg">
<path d="M1.91406 44.7373C1.6862 41.3649 1.57227 38.6875 1.57227 36.7051C1.57227 34.6999 1.61784 33.196 1.70898 32.1934C2.62044 32.2845 3.60026 32.2275 4.64844 32.0225L7.96387 31.3047C11.6781 30.3932 14.4808 29.9375 16.3721 29.9375C18.2861 29.9375 20.1432 30.1198 21.9434 30.4844C23.7663 30.8262 25.4069 31.4186 26.8652 32.2617C30.1921 34.153 31.8555 37.0811 31.8555 41.0459C31.8555 43.8993 30.6958 46.4863 28.3765 48.8069C27.8991 49.2846 27.3726 49.751 26.7969 50.2061C25.7715 51.0036 24.6891 51.71 23.5498 52.3252C26.6032 52.9176 29.1439 54.262 31.1719 56.3584C33.4505 58.7282 34.5898 61.6562 34.5898 65.1426C34.5898 69.3809 33.029 73.2659 29.9072 76.7979C26.3298 80.8311 21.5332 82.8477 15.5176 82.8477C12.7148 82.8477 9.69564 82.4033 6.45996 81.5146C3.83952 80.8311 1.87988 80.4893 0.581055 80.4893L0.341797 80.4209C0.113932 77.96 0 75.9775 0 74.4736C0 72.9469 0.136719 70.8962 0.410156 68.3213H5.43457C5.43457 73.8584 7.49674 77.3219 11.6211 78.7119C12.8743 79.1221 14.2529 79.3271 15.7568 79.3271C18.7874 79.3271 21.3281 78.1423 23.3789 75.7725C25.4297 73.3571 26.4551 70.2354 26.4551 66.4072C26.4551 63.445 25.5436 60.9385 23.7207 58.8877C21.8294 56.7913 19.3913 55.7432 16.4062 55.7432C14.6061 55.7432 13.0452 56.085 11.7236 56.7686C11.1312 54.9912 10.835 53.8747 10.835 53.4189C10.835 52.9632 10.8919 52.6898 11.0059 52.5986V52.5303H11.3135C14.6631 52.4847 17.5684 51.5163 20.0293 49.625C20.485 49.2763 20.901 48.9138 21.2775 48.5376C23.0658 46.7501 23.96 44.6517 23.96 42.2422C23.96 38.2546 22.3079 35.6113 19.0039 34.3125C17.9102 33.8796 16.6569 33.6631 15.2441 33.6631C13.8314 33.6631 12.6123 33.8682 11.5869 34.2783C10.8184 34.5857 10.1459 35.0275 9.56937 35.6037C9.37667 35.7963 9.19469 36.0039 9.02344 36.2266C7.63346 37.9811 6.93848 40.818 6.93848 44.7373H1.91406Z" fill="#FF00C7"/>
<path d="M51.6113 73.8242C51.8555 74.1172 52.1729 74.3044 52.5635 74.3857C52.9704 74.4508 53.8086 74.4834 55.0781 74.4834C56.3477 74.4834 57.3405 74.3857 58.0566 74.1904L57.8857 77.0713H42.1631L42.5049 74.4834C43.9372 74.4834 44.8568 74.2311 45.2637 73.7266C45.9961 72.8151 46.3623 71.2038 46.3623 68.8926V57.125C46.3623 54.9277 46.1344 53.5687 45.6787 53.0479C45.1742 52.4619 44.0674 52.1201 42.3584 52.0225L42.7002 48.8975L51.4648 47.5791C51.3021 48.7673 51.2207 50.1263 51.2207 51.6562C52.9297 50.0286 54.9316 48.7998 57.2266 47.9697C58.0404 47.693 58.8135 47.5547 59.5459 47.5547C62.6709 47.5547 64.2334 48.9463 64.2334 51.7295C64.2334 53.3734 63.9974 55.1393 63.5254 57.0273C63.4928 57.1576 63.4684 57.2471 63.4521 57.2959C63.4359 57.3285 63.4277 57.3529 63.4277 57.3691H59.3506L59.4971 56.2217L59.5947 55.2451C59.6273 54.9359 59.6436 54.6104 59.6436 54.2686C59.6436 53.9268 59.611 53.585 59.5459 53.2432C59.4971 52.9014 59.3913 52.6165 59.2285 52.3887C58.9355 51.9492 58.4391 51.7295 57.7393 51.7295C57.0394 51.7295 56.3721 51.8353 55.7373 52.0469C55.1188 52.2585 54.5166 52.5107 53.9307 52.8037C52.7425 53.4222 51.8229 54.057 51.1719 54.708L51.2207 54.6836L51.2451 71.0654C51.2451 72.6117 51.3672 73.5312 51.6113 73.8242Z" fill="#FF00C7"/>
<path d="M72.8725 51.613C74.4673 50.0173 76.3809 48.868 78.6133 48.165C79.8503 47.7581 81.2826 47.5547 82.9102 47.5547C84.554 47.5547 86.2223 47.7826 87.915 48.2383V47.75C87.915 43.9089 87.8499 41.793 87.7197 41.4023C87.5895 40.9954 87.4268 40.7025 87.2314 40.5234C87.0524 40.3444 86.8083 40.1898 86.499 40.0596C86.2061 39.9294 85.8805 39.8317 85.5225 39.7666C85.0667 39.7015 84.2773 39.6689 83.1543 39.6689H82.6904L83.0566 36.8857L93.2129 35.4697C93.2129 35.6162 93.1966 35.7383 93.1641 35.8359C93.1478 35.9336 93.1152 36.1615 93.0664 36.5195C93.0176 36.8613 92.9688 37.4554 92.9199 38.3018C92.7897 40.5641 92.7246 43.6077 92.7246 47.4326V69.6982C92.7246 70.9678 92.863 71.863 93.1396 72.3838C93.4326 72.9046 93.8395 73.165 94.3604 73.165C95.0439 73.165 95.8252 73.0104 96.7041 72.7012L97.4121 72.4814C97.3796 72.6768 97.347 72.9534 97.3145 73.3115C97.2982 73.6533 97.2738 74.0114 97.2412 74.3857C97.2087 74.7601 97.1842 75.167 97.168 75.6064L89.502 77.5107C89.3229 77.4294 89.0706 76.9329 88.7451 76.0215C88.4359 75.11 88.2243 74.4427 88.1104 74.0195C86.0433 75.4844 83.846 76.5179 81.5186 77.1201C80.7048 77.3317 79.7201 77.4375 78.5645 77.4375C77.4089 77.4375 76.1475 77.1445 74.7803 76.5586C73.4131 75.9727 72.2331 75.1019 71.2402 73.9463C69.0755 71.4886 67.9932 68.0951 67.9932 63.7656C67.9932 60.9336 68.6442 58.248 69.9463 55.709C70.7595 54.1165 71.7348 52.7512 72.8725 51.613ZM80.3711 72.9697C81.2826 72.9372 82.1615 72.8314 83.0078 72.6523C83.8542 72.4733 84.6191 72.2699 85.3027 72.042C86.7513 71.57 87.6383 71.1712 87.9639 70.8457L87.915 70.8701V53.1211C87.1989 52.0469 85.8236 51.29 83.7891 50.8506C83.2031 50.7204 82.4381 50.6553 81.4941 50.6553C80.5501 50.6553 79.5247 50.875 78.418 51.3145C77.5752 51.6415 76.8248 52.1338 76.1667 52.7914C75.9733 52.9847 75.7878 53.1922 75.6104 53.4141C73.9827 55.4486 73.1689 58.6387 73.1689 62.9844C73.1689 65.9141 73.9095 68.3473 75.3906 70.2842C76.8066 72.1234 78.4668 73.0186 80.3711 72.9697Z" fill="#FF00C7"/>
<path d="M100.235 28.7646C100.268 28.667 100.284 28.5449 100.284 28.3984L93.2129 35.4695C93.2129 35.616 93.1966 35.7381 93.1641 35.8357L100.235 28.7646Z" fill="#FF00C7"/>
<path d="M100.137 29.4482C100.186 29.0902 100.219 28.8623 100.235 28.7646L93.1641 35.8357C93.1478 35.9334 93.1152 36.1612 93.0664 36.5193L100.137 29.4482Z" fill="#FF00C7"/>
<path d="M99.991 31.2305C100.04 30.3841 100.089 29.79 100.137 29.4482L93.0664 36.5193C93.0176 36.8611 92.9688 37.4552 92.9199 38.3015L99.991 31.2305Z" fill="#FF00C7"/>
<path d="M100.284 28.3984L90.1277 29.8145L83.0566 36.8855L93.2129 35.4695L100.284 28.3984Z" fill="#FF00C7"/>
<path d="M99.7957 40.3613C99.7957 36.5365 99.8608 33.4928 99.991 31.2305L92.9199 38.3015C92.7897 40.5639 92.7246 43.6075 92.7246 47.4324L99.7957 40.3613Z" fill="#FF00C7"/>
<path d="M93.5701 32.9883C93.8793 33.1185 94.1235 33.2731 94.3025 33.4521L87.2314 40.5232C87.0524 40.3442 86.8083 40.1896 86.499 40.0593L93.5701 32.9883Z" fill="#FF00C7"/>
<path d="M94.3025 33.4521C94.4978 33.6312 94.6606 33.9242 94.7908 34.3311L87.7197 41.4021C87.5895 40.9952 87.4268 40.7023 87.2314 40.5232L94.3025 33.4521Z" fill="#FF00C7"/>
<path d="M92.5935 32.6953C92.9516 32.7604 93.2771 32.8581 93.5701 32.9883L86.499 40.0593C86.2061 39.9291 85.8805 39.8315 85.5225 39.7664L92.5935 32.6953Z" fill="#FF00C7"/>
<path d="M90.2254 32.5977C91.3484 32.5977 92.1378 32.6302 92.5935 32.6953L85.5225 39.7664C85.0667 39.7013 84.2773 39.6687 83.1543 39.6687L90.2254 32.5977Z" fill="#FF00C7"/>
<path d="M90.1277 29.8145L89.7615 32.5977L82.6904 39.6687L83.0566 36.8855L90.1277 29.8145Z" fill="#FF00C7"/>
<path d="M89.7615 32.5977H90.2254L83.1543 39.6687H82.6904L89.7615 32.5977Z" fill="#FF00C7"/>
<path d="M94.7908 34.3311C94.921 34.7217 94.9861 36.8376 94.9861 40.6787L87.915 47.7498C87.915 43.9086 87.8499 41.7927 87.7197 41.4021L94.7908 34.3311Z" fill="#FF00C7"/>
<path d="M94.9861 40.6787V41.167L87.915 48.2381V47.7498L94.9861 40.6787Z" fill="#FF00C7"/>
<path d="M94.9861 41.167C93.2934 40.7113 91.6251 40.4834 89.9812 40.4834L82.9102 47.5545C84.554 47.5545 86.2223 47.7823 87.915 48.2381L94.9861 41.167Z" fill="#FF00C7"/>
<path d="M99.7957 62.627V40.3613L92.7246 47.4324V69.698L99.7957 62.627Z" fill="#FF00C7"/>
<path d="M90.8601 43.7793C92.8946 44.2188 94.27 44.9756 94.9861 46.0498L87.915 53.1209C87.1989 52.0467 85.8236 51.2898 83.7891 50.8504L90.8601 43.7793Z" fill="#FF00C7"/>
<path d="M89.9812 40.4834C88.3536 40.4834 86.9213 40.6868 85.6843 41.0938L78.6133 48.1648C79.8503 47.7579 81.2826 47.5545 82.9102 47.5545L89.9812 40.4834Z" fill="#FF00C7"/>
<path d="M88.5652 43.584C89.5092 43.584 90.2742 43.6491 90.8601 43.7793L83.7891 50.8504C83.2031 50.7202 82.4382 50.6551 81.4941 50.6551L88.5652 43.584Z" fill="#FF00C7"/>
<path d="M85.489 44.2432C86.5958 43.8037 87.6212 43.584 88.5652 43.584L81.4941 50.6551C80.5501 50.6551 79.5247 50.8748 78.418 51.3142L85.489 44.2432Z" fill="#FF00C7"/>
<path d="M94.9861 46.0498V63.7988L87.915 70.8699V53.1209L94.9861 46.0498Z" fill="#FF00C7"/>
<path d="M85.6844 41.0938C83.4519 41.7967 81.5383 42.946 79.9435 44.5417L72.8778 51.6074C74.4715 50.0145 76.3834 48.867 78.6133 48.1648L85.6844 41.0938Z" fill="#FF00C7"/>
<path d="M83.2378 45.7201C83.8958 45.0625 84.6463 44.5702 85.489 44.2432L78.418 51.3142C77.5752 51.6413 76.8248 52.1336 76.1667 52.7912L83.2378 45.7201Z" fill="#FF00C7"/>
<path d="M104.483 65.4102L103.775 65.6299L96.7041 72.701L97.4121 72.4812L104.483 65.4102Z" fill="#FF00C7"/>
<path d="M104.386 66.2402C104.418 65.8822 104.451 65.6055 104.483 65.4102L97.4121 72.4812C97.3796 72.6765 97.347 72.9532 97.3145 73.3113L104.386 66.2402Z" fill="#FF00C7"/>
<path d="M104.312 67.3145C104.345 66.9401 104.369 66.582 104.386 66.2402L97.3145 73.3113C97.2982 73.6531 97.2738 74.0112 97.2412 74.3855L104.312 67.3145Z" fill="#FF00C7"/>
<path d="M82.6814 46.3429C82.8577 46.1225 83.0419 45.9162 83.234 45.724L76.1667 52.7913C75.9733 52.9846 75.7878 53.1921 75.6104 53.4139L82.6814 46.3429Z" fill="#FF00C7"/>
<path d="M103.775 65.6299C102.896 65.9391 102.115 66.0938 101.431 66.0938L94.3604 73.1648C95.0439 73.1648 95.8252 73.0102 96.7041 72.701L103.775 65.6299Z" fill="#FF00C7"/>
<path d="M104.239 68.5352C104.255 68.0957 104.28 67.6888 104.312 67.3145L97.2412 74.3855C97.2087 74.7599 97.1842 75.1668 97.168 75.6062L104.239 68.5352Z" fill="#FF00C7"/>
<path d="M100.211 65.3125C99.934 64.7917 99.7957 63.8965 99.7957 62.627L92.7246 69.698C92.7246 70.9676 92.863 71.8627 93.1396 72.3836L100.211 65.3125Z" fill="#FF00C7"/>
<path d="M101.431 66.0938C100.911 66.0938 100.504 65.8333 100.211 65.3125L93.1396 72.3836C93.4326 72.9044 93.8395 73.1648 94.3604 73.1648L101.431 66.0938Z" fill="#FF00C7"/>
<path d="M79.9435 44.5415C78.8059 45.6797 77.8305 47.0451 77.0174 48.6375L69.9463 55.7086C70.7595 54.1161 71.7348 52.7508 72.8725 51.6126L79.9435 44.5415Z" fill="#FF00C7"/>
<path d="M94.9861 63.7988L95.0349 63.7744L87.9639 70.8455L87.915 70.8699L94.9861 63.7988Z" fill="#FF00C7"/>
<path d="M96.573 70.4395L104.239 68.5352L97.168 75.6062L89.502 77.5105L96.573 70.4395Z" fill="#FF00C7"/>
<path d="M80.24 55.9131C80.24 51.5674 81.0538 48.3773 82.6814 46.3428L75.6104 53.4138C73.9827 55.4483 73.1689 58.6385 73.1689 62.9842L80.24 55.9131Z" fill="#FF00C7"/>
<path d="M95.0349 63.7744C94.7094 64.0999 93.8224 64.4987 92.3738 64.9707L85.3027 72.0418C86.7513 71.5698 87.6383 71.171 87.9639 70.8455L95.0349 63.7744Z" fill="#FF00C7"/>
<path d="M95.1814 66.9482C95.2954 67.3714 95.5069 68.0387 95.8162 68.9502L88.7451 76.0213C88.4359 75.1098 88.2243 74.4425 88.1104 74.0193L95.1814 66.9482Z" fill="#FF00C7"/>
<path d="M95.8162 68.9502C96.1417 69.8617 96.394 70.3581 96.573 70.4395L89.502 77.5105C89.3229 77.4291 89.0706 76.9327 88.7451 76.0213L95.8162 68.9502Z" fill="#FF00C7"/>
<path d="M71.3045 44.6582C71.3045 41.875 69.742 40.4834 66.617 40.4834L59.5459 47.5545C62.6709 47.5545 64.2334 48.9461 64.2334 51.7293L71.3045 44.6582Z" fill="#FF00C7"/>
<path d="M92.3738 64.9707C91.6902 65.1986 90.9252 65.402 90.0789 65.5811L83.0078 72.6521C83.8542 72.4731 84.6191 72.2696 85.3027 72.0418L92.3738 64.9707Z" fill="#FF00C7"/>
<path d="M66.617 40.4834C65.8845 40.4834 65.1114 40.6217 64.2976 40.8984L57.2266 47.9695C58.0404 47.6928 58.8135 47.5545 59.5459 47.5545L66.617 40.4834Z" fill="#FF00C7"/>
<path d="M70.5965 49.9561C71.0685 48.068 71.3045 46.3021 71.3045 44.6582L64.2334 51.7293C64.2334 53.3732 63.9974 55.1391 63.5254 57.0271L70.5965 49.9561Z" fill="#FF00C7"/>
<path d="M88.5896 70.0488C90.9171 69.4466 93.1144 68.4131 95.1814 66.9482L88.1104 74.0193C86.0433 75.4842 83.846 76.5177 81.5186 77.1199L88.5896 70.0488Z" fill="#FF00C7"/>
<path d="M77.0174 48.6377C75.7153 51.1768 75.0642 53.8623 75.0642 56.6943L67.9932 63.7654C67.9932 60.9334 68.6442 58.2478 69.9463 55.7088L77.0174 48.6377Z" fill="#FF00C7"/>
<path d="M90.0789 65.5811C89.2325 65.7601 88.3536 65.8659 87.4422 65.8984L80.3711 72.9695C81.2826 72.937 82.1615 72.8312 83.0078 72.6521L90.0789 65.5811Z" fill="#FF00C7"/>
<path d="M82.4617 63.2129C80.9806 61.276 80.24 58.8428 80.24 55.9131L73.1689 62.9842C73.1689 65.9138 73.9095 68.3471 75.3906 70.284L82.4617 63.2129Z" fill="#FF00C7"/>
<path d="M66.2996 45.3174C66.4623 45.5452 66.5681 45.8301 66.617 46.1719L59.5459 53.2429C59.4971 52.9011 59.3913 52.6163 59.2285 52.3885L66.2996 45.3174Z" fill="#FF00C7"/>
<path d="M64.8103 44.6582C65.5102 44.6582 66.0066 44.8779 66.2996 45.3174L59.2285 52.3885C58.9355 51.949 58.4391 51.7293 57.7393 51.7293L64.8103 44.6582Z" fill="#FF00C7"/>
<path d="M70.5232 50.2246C70.5395 50.1758 70.5639 50.0863 70.5965 49.9561L63.5254 57.0271C63.4928 57.1573 63.4684 57.2468 63.4521 57.2957L70.5232 50.2246Z" fill="#FF00C7"/>
<path d="M87.4422 65.8984C85.5379 65.9473 83.8777 65.0521 82.4617 63.2129L75.3906 70.284C76.8066 72.1232 78.4668 73.0183 80.3711 72.9695L87.4422 65.8984Z" fill="#FF00C7"/>
<path d="M70.4988 50.2979C70.4988 50.2816 70.5069 50.2572 70.5232 50.2246L63.4521 57.2957C63.4359 57.3282 63.4277 57.3526 63.4277 57.3689L70.4988 50.2979Z" fill="#FF00C7"/>
<path d="M66.617 46.1719C66.6821 46.5137 66.7146 46.8555 66.7146 47.1973L59.6436 54.2683C59.6436 53.9265 59.611 53.5847 59.5459 53.2429L66.617 46.1719Z" fill="#FF00C7"/>
<path d="M66.7146 47.1973C66.7146 47.5391 66.6983 47.8646 66.6658 48.1738L59.5947 55.2449C59.6273 54.9357 59.6436 54.6101 59.6436 54.2683L66.7146 47.1973Z" fill="#FF00C7"/>
<path d="M62.8084 44.9756C63.4431 44.764 64.1105 44.6582 64.8103 44.6582L57.7393 51.7293C57.0394 51.7293 56.3721 51.8351 55.7373 52.0467L62.8084 44.9756Z" fill="#FF00C7"/>
<path d="M64.2976 40.8984C62.0027 41.7285 60.0008 42.9574 58.2918 44.585L51.2207 51.656C52.9297 50.0284 54.9316 48.7996 57.2266 47.9695L64.2976 40.8984Z" fill="#FF00C7"/>
<path d="M66.4217 50.2979H70.4988L63.4277 57.3689H59.3506L66.4217 50.2979Z" fill="#FF00C7"/>
<path d="M66.6658 48.1738L66.5681 49.1504L59.4971 56.2215L59.5947 55.2449L66.6658 48.1738Z" fill="#FF00C7"/>
<path d="M85.6355 70.3662C86.7911 70.3662 87.7758 70.2604 88.5896 70.0488L81.5186 77.1199C80.7048 77.3315 79.7201 77.4373 78.5645 77.4373L85.6355 70.3662Z" fill="#FF00C7"/>
<path d="M66.5681 49.1504L66.4217 50.2979L59.3506 57.3689L59.4971 56.2215L66.5681 49.1504Z" fill="#FF00C7"/>
<path d="M61.0017 45.7324C61.5877 45.4395 62.1899 45.1872 62.8084 44.9756L55.7373 52.0467C55.1188 52.2582 54.5166 52.5105 53.9307 52.8035L61.0017 45.7324Z" fill="#FF00C7"/>
<path d="M58.2918 44.585C58.2918 43.055 58.3732 41.696 58.5359 40.5078L51.4648 47.5789C51.3021 48.767 51.2207 50.1261 51.2207 51.656L58.2918 44.585Z" fill="#FF00C7"/>
<path d="M75.0642 56.6943C75.0642 61.0238 76.1466 64.4173 78.3113 66.875L71.2402 73.9461C69.0755 71.4884 67.9932 68.0948 67.9932 63.7654L75.0642 56.6943Z" fill="#FF00C7"/>
<path d="M81.8513 69.4873C83.2185 70.0732 84.4799 70.3662 85.6355 70.3662L78.5645 77.4373C77.4089 77.4373 76.1475 77.1443 74.7803 76.5584L81.8513 69.4873Z" fill="#FF00C7"/>
<path d="M58.5359 40.5078L49.7713 41.8262L42.7002 48.8972L51.4648 47.5789L58.5359 40.5078Z" fill="#FF00C7"/>
<path d="M58.2429 47.6367C58.894 46.9857 59.8136 46.3509 61.0017 45.7324L53.9307 52.8035C52.7425 53.422 51.8229 54.0567 51.1719 54.7078L58.2429 47.6367Z" fill="#FF00C7"/>
<path d="M78.3113 66.875C79.3041 68.0306 80.4842 68.9014 81.8513 69.4873L74.7803 76.5584C73.4131 75.9724 72.2331 75.1017 71.2402 73.9461L78.3113 66.875Z" fill="#FF00C7"/>
<path d="M58.2918 47.6123L58.2429 47.6367L51.1719 54.7078L51.2207 54.6834L58.2918 47.6123Z" fill="#FF00C7"/>
<path d="M33.9363 25.1904C32.478 24.3473 30.8373 23.7549 29.0144 23.4131L21.9434 30.4842C23.7663 30.826 25.4069 31.4184 26.8652 32.2615L33.9363 25.1904Z" fill="#FF00C7"/>
<path d="M38.9265 33.9746C38.9265 30.0098 37.2631 27.0817 33.9363 25.1904L26.8652 32.2615C30.1921 34.1528 31.8555 37.0808 31.8555 41.0457L38.9265 33.9746Z" fill="#FF00C7"/>
<path d="M49.7713 41.8262L49.4295 44.9512L42.3584 52.0222L42.7002 48.8972L49.7713 41.8262Z" fill="#FF00C7"/>
<path d="M49.4295 44.9512C51.1385 45.0488 52.2452 45.3906 52.7498 45.9766L45.6787 53.0476C45.1742 52.4617 44.0674 52.1199 42.3584 52.0222L49.4295 44.9512Z" fill="#FF00C7"/>
<path d="M52.7498 45.9766C53.2055 46.4974 53.4334 47.8564 53.4334 50.0537L46.3623 57.1248C46.3623 54.9275 46.1344 53.5685 45.6787 53.0476L52.7498 45.9766Z" fill="#FF00C7"/>
<path d="M29.0144 23.4131C27.2143 23.0485 25.3572 22.8662 23.4431 22.8662L16.3721 29.9373C18.2861 29.9373 20.1432 30.1196 21.9434 30.4842L29.0144 23.4131Z" fill="#FF00C7"/>
<path d="M58.3162 63.9941L58.2918 47.6123L51.2207 54.6834L51.2451 71.0652L58.3162 63.9941Z" fill="#FF00C7"/>
<path d="M35.4476 41.7356C37.7669 39.415 38.9266 36.828 38.9266 33.9746L31.8555 41.0457C31.8555 43.8991 30.6958 46.4861 28.3765 48.8067L35.4476 41.7356Z" fill="#FF00C7"/>
<path d="M53.4334 50.0537V61.8213L46.3623 68.8924V57.1248L53.4334 50.0537Z" fill="#FF00C7"/>
<path d="M26.075 27.2412C29.379 28.54 31.031 31.1833 31.031 35.1709L23.96 42.242C23.96 38.2543 22.3079 35.6111 19.0039 34.3123L26.075 27.2412Z" fill="#FF00C7"/>
<path d="M22.3152 26.5918C23.728 26.5918 24.9812 26.8083 26.075 27.2412L19.0039 34.3123C17.9102 33.8793 16.6569 33.6629 15.2441 33.6629L22.3152 26.5918Z" fill="#FF00C7"/>
<path d="M64.9568 70L65.1277 67.1191L58.0566 74.1902L57.8857 77.0711L64.9568 70Z" fill="#FF00C7"/>
<path d="M65.1277 67.1191C64.4116 67.3145 63.4187 67.4121 62.1492 67.4121L55.0781 74.4832C56.3477 74.4832 57.3405 74.3855 58.0566 74.1902L65.1277 67.1191Z" fill="#FF00C7"/>
<path d="M23.4431 22.8662C21.5519 22.8662 18.7491 23.3219 15.0349 24.2334L7.96387 31.3045C11.6781 30.393 14.4808 29.9373 16.3721 29.9373L23.4431 22.8662Z" fill="#FF00C7"/>
<path d="M18.658 27.207C19.6834 26.7969 20.9024 26.5918 22.3152 26.5918L15.2441 33.6629C13.8314 33.6629 12.6123 33.8679 11.5869 34.2781L18.658 27.207Z" fill="#FF00C7"/>
<path d="M62.1492 67.4121C60.8797 67.4121 60.0414 67.3796 59.6345 67.3145L52.5635 74.3855C52.9704 74.4506 53.8086 74.4832 55.0781 74.4832L62.1492 67.4121Z" fill="#FF00C7"/>
<path d="M58.6824 66.7529C58.4383 66.46 58.3162 65.5404 58.3162 63.9941L51.2451 71.0652C51.2451 72.6114 51.3672 73.531 51.6113 73.824L58.6824 66.7529Z" fill="#FF00C7"/>
<path d="M33.8679 43.135C34.4411 42.6819 34.9656 42.2176 35.4413 41.7421L28.3765 48.8069C27.8991 49.2846 27.3726 49.751 26.7969 50.2061L33.8679 43.135Z" fill="#FF00C7"/>
<path d="M59.6345 67.3145C59.2439 67.2331 58.9265 67.0459 58.6824 66.7529L51.6113 73.824C51.8555 74.117 52.1729 74.3041 52.5635 74.3855L59.6345 67.3145Z" fill="#FF00C7"/>
<path d="M31.031 35.1709C31.031 37.5804 30.1369 39.6788 28.3485 41.4663L21.2814 48.5335C23.0671 46.7469 23.96 44.6497 23.96 42.242L31.031 35.1709Z" fill="#FF00C7"/>
<path d="M16.6404 28.5324C17.217 27.9562 17.8895 27.5144 18.658 27.207L11.5869 34.2781C10.8184 34.5855 10.1459 35.0273 9.56937 35.6035L16.6404 28.5324Z" fill="#FF00C7"/>
<path d="M15.0349 24.2334L11.7195 24.9512L4.64844 32.0222L7.96387 31.3045L15.0349 24.2334Z" fill="#FF00C7"/>
<path d="M53.4334 61.8213C53.4334 64.1325 53.0672 65.7438 52.3347 66.6553L45.2637 73.7263C45.9961 72.8149 46.3623 71.2036 46.3623 68.8924L53.4334 61.8213Z" fill="#FF00C7"/>
<path d="M30.6209 45.2539C31.7602 44.6387 32.8426 43.9323 33.8679 43.1348L26.7969 50.2058C25.7715 51.0034 24.6891 51.7097 23.5498 52.325L30.6209 45.2539Z" fill="#FF00C7"/>
<path d="M16.0945 29.1551C16.2651 28.9334 16.4462 28.7265 16.6381 28.5346L9.56937 35.6033C9.37667 35.7959 9.19469 36.0035 9.02344 36.2261L16.0945 29.1551Z" fill="#FF00C7"/>
<path d="M38.2429 49.2871C36.2149 47.1908 33.6743 45.8464 30.6209 45.2539L23.5498 52.325C26.6032 52.9174 29.1439 54.2618 31.1719 56.3582L38.2429 49.2871Z" fill="#FF00C7"/>
<path d="M49.2342 70H64.9568L57.8857 77.0711H42.1631L49.2342 70Z" fill="#FF00C7"/>
<path d="M41.6609 58.0713C41.6609 54.585 40.5216 51.6569 38.2429 49.2871L31.1719 56.3582C33.4505 58.728 34.5898 61.656 34.5898 65.1424L41.6609 58.0713Z" fill="#FF00C7"/>
<path d="M28.3485 41.4663C27.9721 41.8426 27.556 42.205 27.1004 42.5537L20.0293 49.6248C20.485 49.2761 20.901 48.9136 21.2775 48.5374L28.3485 41.4663Z" fill="#FF00C7"/>
<path d="M11.7195 24.9512C10.6713 25.1562 9.69151 25.2132 8.78005 25.1221L1.70898 32.1931C2.62044 32.2843 3.60026 32.2273 4.64844 32.0222L11.7195 24.9512Z" fill="#FF00C7"/>
<path d="M49.576 67.4121C50.8254 67.4121 51.6847 67.2201 52.1538 66.8362L52.3347 66.6553C52.2828 66.7197 52.2225 66.78 52.1538 66.8362L45.2637 73.7263C44.8568 74.2309 43.9372 74.4832 42.5049 74.4832L49.576 67.4121Z" fill="#FF00C7"/>
<path d="M14.0095 37.666C14.0095 33.7467 14.7045 30.9098 16.0945 29.1553L9.02344 36.2263C7.63346 37.9809 6.93848 40.8178 6.93848 44.7371L14.0095 37.666Z" fill="#FF00C7"/>
<path d="M8.78005 25.1221C8.68891 26.1247 8.64333 27.6286 8.64333 29.6338L1.57227 36.7049C1.57227 34.6996 1.61784 33.1957 1.70898 32.1931L8.78005 25.1221Z" fill="#FF00C7"/>
<path d="M49.576 67.4121L49.2342 70L42.1631 77.0711L42.5049 74.4832L49.576 67.4121Z" fill="#FF00C7"/>
<path d="M27.1004 42.5537C24.6394 44.445 21.7342 45.4134 18.3845 45.459L11.3135 52.5301C14.6631 52.4845 17.5684 51.5161 20.0293 49.6248L27.1004 42.5537Z" fill="#FF00C7"/>
<path d="M23.4773 48.6719C26.4623 48.6719 28.9005 49.7201 30.7918 51.8164L23.7207 58.8875C21.8294 56.7911 19.3913 55.7429 16.4062 55.7429L23.4773 48.6719Z" fill="#FF00C7"/>
<path d="M30.7918 51.8164C32.6147 53.8672 33.5261 56.3737 33.5261 59.3359L26.4551 66.407C26.4551 63.4448 25.5436 60.9383 23.7207 58.8875L30.7918 51.8164Z" fill="#FF00C7"/>
<path d="M36.9783 69.7266C40.1 66.1947 41.6609 62.3096 41.6609 58.0713L34.5898 65.1424C34.5898 69.3806 33.029 73.2657 29.9072 76.7976L36.9783 69.7266Z" fill="#FF00C7"/>
<path d="M8.64333 29.6338C8.64333 31.6162 8.75727 34.2936 8.98513 37.666L1.91406 44.7371C1.6862 41.3647 1.57227 38.6873 1.57227 36.7049L8.64333 29.6338Z" fill="#FF00C7"/>
<path d="M8.98513 37.666H14.0095L6.93848 44.7371H1.91406L8.98513 37.666Z" fill="#FF00C7"/>
<path d="M18.3845 45.459H18.0769L11.0059 52.5301H11.3135L18.3845 45.459Z" fill="#FF00C7"/>
<path d="M18.0769 45.459V45.5273L11.0059 52.5984V52.5301L18.0769 45.459Z" fill="#FF00C7"/>
<path d="M18.0459 45.5583C17.9527 45.6722 17.906 45.9353 17.906 46.3477L10.835 53.4187C10.835 52.963 10.8919 52.6896 11.0059 52.5984L18.0459 45.5583C18.0557 45.5464 18.0661 45.536 18.0769 45.5273L18.0459 45.5583Z" fill="#FF00C7"/>
<path d="M18.7947 49.6973C20.1163 49.0137 21.6772 48.6719 23.4773 48.6719L16.4062 55.7429C14.6061 55.7429 13.0452 56.0847 11.7236 56.7683L18.7947 49.6973Z" fill="#FF00C7"/>
<path d="M17.906 46.3477C17.906 46.8034 18.2023 47.9199 18.7947 49.6973L11.7236 56.7683C11.1312 54.991 10.835 53.8745 10.835 53.4187L17.906 46.3477Z" fill="#FF00C7"/>
<path d="M33.5261 59.3359C33.5261 63.1641 32.5008 66.2858 30.45 68.7012L23.3789 75.7722C25.4297 73.3569 26.4551 70.2351 26.4551 66.407L33.5261 59.3359Z" fill="#FF00C7"/>
<path d="M36.9783 69.7266C36.4744 70.2946 35.9464 70.8227 35.3941 71.3107L29.9072 76.7976C26.3298 80.8308 21.5332 82.8474 15.5176 82.8474L22.5886 75.7764C27.757 75.7764 32.0255 74.2878 35.3941 71.3107L36.9783 69.7266Z" fill="#FF00C7"/>
<path d="M22.8279 72.2559C25.2812 72.2559 27.4135 71.4794 29.2248 69.9264L30.45 68.7012C30.0593 69.1526 29.6509 69.561 29.2248 69.9264L23.3789 75.7722C21.3281 78.142 18.7874 79.3269 15.7568 79.3269L22.8279 72.2559Z" fill="#FF00C7"/>
<path d="M18.6922 71.6406C14.5678 70.2507 12.5056 66.7871 12.5056 61.25L5.43457 68.3211C5.43457 73.8582 7.49674 77.3217 11.6211 78.7117L18.6922 71.6406Z" fill="#FF00C7"/>
<path d="M22.8279 72.2559C21.324 72.2559 19.9454 72.0508 18.6922 71.6406L11.6211 78.7117C12.8743 79.1218 14.2529 79.3269 15.7568 79.3269L22.8279 72.2559Z" fill="#FF00C7"/>
<path d="M12.5056 61.25H7.48122L0.410156 68.3211H5.43457L12.5056 61.25Z" fill="#FF00C7"/>
<path d="M13.531 74.4434C16.7667 75.332 19.7859 75.7764 22.5886 75.7764L15.5176 82.8474C12.7148 82.8474 9.69564 82.4031 6.45996 81.5144L13.531 74.4434Z" fill="#FF00C7"/>
<path d="M7.48122 61.25C7.20779 63.8249 7.07107 65.8757 7.07107 67.4023L0 74.4734C0 72.9467 0.136719 70.8959 0.410156 68.3211L7.48122 61.25Z" fill="#FF00C7"/>
<path d="M7.07107 67.4023C7.07107 68.9062 7.185 70.8887 7.41286 73.3496L0.341797 80.4207C0.113932 77.9597 0 75.9773 0 74.4734L7.07107 67.4023Z" fill="#FF00C7"/>
<path d="M7.65212 73.418C8.95095 73.418 10.9106 73.7598 13.531 74.4434L6.45996 81.5144C3.83952 80.8308 1.87988 80.489 0.581055 80.489L7.65212 73.418Z" fill="#FF00C7"/>
<path d="M7.41286 73.3496L7.65212 73.418L0.581055 80.489L0.341797 80.4207L7.41286 73.3496Z" fill="#FF00C7"/>
<path d="M8.98514 37.666C8.75727 34.2936 8.64334 31.6162 8.64334 29.6338C8.64334 27.6286 8.68891 26.1247 8.78006 25.1221C9.69152 25.2132 10.6713 25.1562 11.7195 24.9512L15.0349 24.2334C18.7491 23.3219 21.5519 22.8662 23.4431 22.8662C25.3572 22.8662 27.2143 23.0485 29.0144 23.4131C30.8374 23.7549 32.478 24.3473 33.9363 25.1904C37.2631 27.0817 38.9265 30.0098 38.9265 33.9746C38.9265 37.4154 37.2403 40.4688 33.868 43.1348C32.8426 43.9323 31.7602 44.6387 30.6209 45.2539C33.6743 45.8464 36.215 47.1908 38.243 49.2871C40.5216 51.6569 41.6609 54.585 41.6609 58.0713C41.6609 62.3096 40.1 66.1947 36.9783 69.7266C33.4008 73.7598 28.6043 75.7764 22.5887 75.7764C19.7859 75.7764 16.7667 75.332 13.531 74.4434C10.9106 73.7598 8.95096 73.418 7.65213 73.418L7.41287 73.3496C7.18501 70.8887 7.07108 68.9062 7.07108 67.4023C7.07108 65.8757 7.20779 63.8249 7.48123 61.25H12.5056C12.5056 66.7871 14.5678 70.2507 18.6922 71.6406C19.9454 72.0508 21.324 72.2559 22.8279 72.2559C25.8585 72.2559 28.3992 71.071 30.45 68.7012C32.5008 66.2858 33.5262 63.1641 33.5262 59.3359C33.5262 56.3737 32.6147 53.8672 30.7918 51.8164C28.9005 49.7201 26.4624 48.6719 23.4773 48.6719C21.6772 48.6719 20.1163 49.0137 18.7947 49.6973C18.2023 47.9199 17.906 46.8034 17.906 46.3477C17.906 45.8919 17.963 45.6185 18.0769 45.5273V45.459H18.3846C21.7342 45.4134 24.6394 44.445 27.1004 42.5537C29.7208 40.5485 31.031 38.0876 31.031 35.1709C31.031 31.1833 29.379 28.54 26.075 27.2412C24.9812 26.8083 23.728 26.5918 22.3152 26.5918C20.9025 26.5918 19.6834 26.7969 18.658 27.207C17.6326 27.6172 16.7781 28.2666 16.0945 29.1553C14.7045 30.9098 14.0096 33.7467 14.0096 37.666H8.98514ZM58.6824 66.7529C58.9265 67.0459 59.2439 67.2331 59.6346 67.3145C60.0415 67.3796 60.8797 67.4121 62.1492 67.4121C63.4187 67.4121 64.4116 67.3145 65.1277 67.1191L64.9568 70H49.2342L49.576 67.4121C51.0082 67.4121 51.9278 67.1598 52.3347 66.6553C53.0672 65.7438 53.4334 64.1325 53.4334 61.8213V50.0537C53.4334 47.8564 53.2055 46.4974 52.7498 45.9766C52.2452 45.3906 51.1385 45.0488 49.4295 44.9512L49.7713 41.8262L58.5359 40.5078C58.3732 41.696 58.2918 43.055 58.2918 44.585C60.0008 42.9574 62.0027 41.7285 64.2976 40.8984C65.1114 40.6217 65.8846 40.4834 66.617 40.4834C69.742 40.4834 71.3045 41.875 71.3045 44.6582C71.3045 46.3021 71.0685 48.068 70.5965 49.9561C70.5639 50.0863 70.5395 50.1758 70.5232 50.2246C70.5069 50.2572 70.4988 50.2816 70.4988 50.2979H66.4217L66.5681 49.1504L66.6658 48.1738C66.6984 47.8646 66.7146 47.5391 66.7146 47.1973C66.7146 46.8555 66.6821 46.5137 66.617 46.1719C66.5681 45.8301 66.4624 45.5452 66.2996 45.3174C66.0066 44.8779 65.5102 44.6582 64.8103 44.6582C64.1105 44.6582 63.4431 44.764 62.8084 44.9756C62.1899 45.1872 61.5877 45.4395 61.0017 45.7324C59.8136 46.3509 58.894 46.9857 58.243 47.6367L58.2918 47.6123L58.3162 63.9941C58.3162 65.5404 58.4383 66.46 58.6824 66.7529ZM85.6844 41.0938C86.9213 40.6868 88.3536 40.4834 89.9812 40.4834C91.6251 40.4834 93.2934 40.7113 94.9861 41.167V40.6787C94.9861 36.8376 94.921 34.7217 94.7908 34.3311C94.6606 33.9242 94.4978 33.6312 94.3025 33.4521C94.1235 33.2731 93.8793 33.1185 93.5701 32.9883C93.2771 32.8581 92.9516 32.7604 92.5935 32.6953C92.1378 32.6302 91.3484 32.5977 90.2254 32.5977H89.7615L90.1277 29.8145L100.284 28.3984C100.284 28.5449 100.268 28.667 100.235 28.7646C100.219 28.8623 100.186 29.0902 100.137 29.4482C100.089 29.79 100.04 30.3841 99.991 31.2305C99.8608 33.4928 99.7957 36.5365 99.7957 40.3613V62.627C99.7957 63.8965 99.934 64.7917 100.211 65.3125C100.504 65.8333 100.911 66.0938 101.431 66.0938C102.115 66.0938 102.896 65.9391 103.775 65.6299L104.483 65.4102C104.451 65.6055 104.418 65.8822 104.386 66.2402C104.369 66.582 104.345 66.9401 104.312 67.3145C104.28 67.6888 104.255 68.0957 104.239 68.5352L96.573 70.4395C96.394 70.3581 96.1417 69.8617 95.8162 68.9502C95.5069 68.0387 95.2954 67.3714 95.1814 66.9482C93.1144 68.4131 90.9171 69.4466 88.5896 70.0488C87.7758 70.2604 86.7911 70.3662 85.6355 70.3662C84.4799 70.3662 83.2185 70.0732 81.8513 69.4873C80.4842 68.9014 79.3041 68.0306 78.3113 66.875C76.1466 64.4173 75.0642 61.0238 75.0642 56.6943C75.0642 53.8623 75.7153 51.1768 77.0174 48.6377C78.9705 44.8128 81.8595 42.2982 85.6844 41.0938ZM87.4422 65.8984C88.3536 65.8659 89.2325 65.7601 90.0789 65.5811C90.9252 65.402 91.6902 65.1986 92.3738 64.9707C93.8224 64.4987 94.7094 64.0999 95.0349 63.7744L94.9861 63.7988V46.0498C94.27 44.9756 92.8946 44.2188 90.8601 43.7793C90.2742 43.6491 89.5092 43.584 88.5652 43.584C87.6212 43.584 86.5958 43.8037 85.489 44.2432C84.3985 44.6663 83.4627 45.3662 82.6814 46.3428C81.0538 48.3773 80.24 51.5674 80.24 55.9131C80.24 58.8428 80.9806 61.276 82.4617 63.2129C83.8777 65.0521 85.5379 65.9473 87.4422 65.8984Z" fill="#00FFD1"/>
</svg>
