<svg width="161" height="119" viewBox="0 0 161 119" fill="none" xmlns="http://www.w3.org/2000/svg">
<path d="M40.3037 42.4268L40.2695 56.0303V66.4209C40.2695 68.54 40.3949 69.8389 40.6455 70.3174C41.0785 71.2288 42.0583 71.6846 43.585 71.6846C44.861 71.6846 46.5244 71.4795 48.5752 71.0693L48.1309 75.3076H24L24.4785 71.6846H27.2471C28.5459 71.6846 29.5713 71.5934 30.3232 71.4111C30.8825 71.2795 31.3468 71.0292 31.7161 70.6601C31.8584 70.5179 31.9865 70.3581 32.1006 70.1807C32.7386 69.1781 33.0576 67.0589 33.0576 63.8232V55.5518L33.0234 43.9307V40.2734C33.0234 37.3796 32.1689 35.9326 30.46 35.9326C29.1156 35.9326 27.4408 36.4339 25.4355 37.4365L24.2051 32.959L41.2607 28.0713C40.6227 29.9854 40.3037 32.4235 40.3037 35.3857C40.3037 35.3857 40.3037 37.7327 40.3037 42.4268Z" fill="#FF00C7"/>
<path d="M70.8408 47.1592C70.8877 47.4404 70.9111 47.9482 70.9111 48.6826C70.9111 49.417 70.8252 50.3232 70.6533 51.4014L70.1611 54.7061H67.2549C67.2236 52.8623 66.8096 51.5732 66.0127 50.8389C65.2002 50.0889 63.8955 49.7139 62.0986 49.7139C60.5658 49.7139 59.4224 50.0907 58.6684 50.8444C58.3925 51.1202 58.1687 51.4465 57.9971 51.8232C57.7939 52.3076 57.6924 52.8701 57.6924 53.5107C57.6924 54.1357 57.8408 54.6904 58.1377 55.1748C58.4502 55.6592 58.8564 56.1045 59.3564 56.5107C60.1689 57.167 61.1455 57.7451 62.2861 58.2451L65.0752 59.4873C69.7783 61.6748 72.1611 64.2842 72.2236 67.3154C72.2502 69.4961 71.5357 71.3147 70.0799 72.7712C69.825 73.0262 69.5474 73.2701 69.2471 73.5029C67.4189 74.9404 65.2002 75.6592 62.5908 75.6592C61.3408 75.6592 60.0049 75.5107 58.583 75.2139C56.3174 74.7607 55.0127 74.5342 54.6689 74.5342H53.7783C53.5439 74.5342 53.3408 74.5498 53.1689 74.5811C53.2314 71.6123 53.3799 69.1748 53.6143 67.2686H56.6611C56.7393 69.1904 57.2549 70.5967 58.208 71.4873C59.1768 72.3779 60.708 72.8232 62.8018 72.8232C64.6155 72.8232 65.9144 72.4314 66.6984 71.6477C66.941 71.4052 67.1343 71.1252 67.2783 70.8076C67.4971 70.3232 67.6064 69.6904 67.6064 68.9092C67.6064 68.1123 67.3955 67.4248 66.9736 66.8467C66.5674 66.2686 66.0518 65.7764 65.4268 65.3701C64.8174 64.9639 64.1455 64.6123 63.4111 64.3154C62.6924 64.0186 61.9346 63.6904 61.1377 63.3311C60.3564 62.9561 59.4893 62.5186 58.5361 62.0186C57.5986 61.5186 56.7471 60.9326 55.9814 60.2607C54.2314 58.7139 53.3408 56.8623 53.3096 54.7061C53.2848 52.8012 53.9259 51.195 55.2328 49.8875C55.5769 49.5433 55.967 49.2198 56.4033 48.917C58.2939 47.6201 60.5205 46.9717 63.083 46.9717C63.8018 46.9717 64.5518 47.0342 65.333 47.1592C66.8018 47.3936 67.8408 47.5107 68.4502 47.5107C69.0596 47.5107 69.8564 47.3936 70.8408 47.1592Z" fill="#FF00C7"/>
<path d="M92.3799 70.3154L93.4111 72.3076C91.8643 73.7451 89.8877 74.7607 87.4814 75.3545C86.7158 75.5576 85.9111 75.6592 85.0674 75.6592C84.2236 75.6592 83.4424 75.5654 82.7236 75.3779C82.0205 75.1904 81.4346 74.8701 80.9658 74.417C80.0596 73.542 79.5596 71.9873 79.4658 69.7529V51.0029H75.3877L75.5752 48.6123C77.3588 48.2938 78.6958 47.6896 79.586 46.7998C79.7876 46.5983 79.9663 46.3821 80.1221 46.1514C80.7939 45.1514 81.3643 43.1748 81.833 40.2217H84.3877V47.417H93.0361V51.0029H84.2002V67.0342C84.2002 68.9873 84.4814 70.2764 85.0439 70.9014C85.5127 71.417 86.4893 71.6748 87.9736 71.6748C89.458 71.6748 90.9268 71.2217 92.3799 70.3154Z" fill="#FF00C7"/>
<path d="M100.107 43.9316V40.3457L93.0361 47.4168V51.0027L100.107 43.9316Z" fill="#FF00C7"/>
<path d="M91.4588 33.1504H88.9041L81.833 40.2215H84.3877L91.4588 33.1504Z" fill="#FF00C7"/>
<path d="M100.107 40.3457H91.4588L84.3877 47.4168H93.0361L100.107 40.3457Z" fill="#FF00C7"/>
<path d="M91.4588 40.3457V33.1504L84.3877 40.2215V47.4168L91.4588 40.3457Z" fill="#FF00C7"/>
<path d="M88.9041 33.1504C88.4353 36.1035 87.865 38.0801 87.1931 39.0801L80.1221 46.1511C80.7939 45.1511 81.3643 43.1746 81.833 40.2215L88.9041 33.1504Z" fill="#FF00C7"/>
<path d="M91.2713 43.9316H100.107L93.0361 51.0027H84.2002L91.2713 43.9316Z" fill="#FF00C7"/>
<path d="M87.193 39.0801C87.0373 39.3109 86.8586 39.527 86.657 39.7285L79.5874 46.7981C79.7884 46.597 79.9666 46.3814 80.122 46.1511L87.193 39.0801Z" fill="#FF00C7"/>
<path d="M86.6571 39.7285C85.7668 40.6184 84.4299 41.2225 82.6463 41.5411L75.5752 48.6121C77.3588 48.2936 78.6958 47.6894 79.586 46.7996L86.6571 39.7285Z" fill="#FF00C7"/>
<path d="M82.4588 43.9316H86.5369L79.4658 51.0027H75.3877L82.4588 43.9316Z" fill="#FF00C7"/>
<path d="M82.6463 41.541L82.4588 43.9316L75.3877 51.0027L75.5752 48.6121L82.6463 41.541Z" fill="#FF00C7"/>
<path d="M91.2713 59.9629V43.9316L84.2002 51.0027V67.034L91.2713 59.9629Z" fill="#FF00C7"/>
<path d="M77.9822 41.6113C77.9822 40.877 77.9588 40.3691 77.9119 40.0879L70.8408 47.159C70.8877 47.4402 70.9111 47.948 70.9111 48.6824L77.9822 41.6113Z" fill="#FF00C7"/>
<path d="M77.9119 40.0879C76.9275 40.3223 76.1306 40.4395 75.5213 40.4395L68.4502 47.5105C69.0596 47.5105 69.8564 47.3933 70.8408 47.159L77.9119 40.0879Z" fill="#FF00C7"/>
<path d="M100.482 65.2363L99.451 63.2441L92.3799 70.3152L93.4111 72.3074L100.482 65.2363Z" fill="#FF00C7"/>
<path d="M77.7244 44.3301C77.8963 43.252 77.9822 42.3457 77.9822 41.6113L70.9111 48.6824C70.9111 49.4168 70.8252 50.323 70.6533 51.4011L77.7244 44.3301Z" fill="#FF00C7"/>
<path d="M75.5213 40.4395C74.9119 40.4395 73.8728 40.3223 72.4041 40.0879L65.333 47.159C66.8018 47.3933 67.8408 47.5105 68.4502 47.5105L75.5213 40.4395Z" fill="#FF00C7"/>
<path d="M99.451 63.2441C97.9978 64.1504 96.5291 64.6035 95.0447 64.6035L87.9736 71.6746C89.458 71.6746 90.9268 71.2215 92.3799 70.3152L99.451 63.2441Z" fill="#FF00C7"/>
<path d="M86.5369 43.9316V62.6816L79.4658 69.7527V51.0027L86.5369 43.9316Z" fill="#FF00C7"/>
<path d="M77.2322 47.6348L77.7244 44.3301L70.6533 51.4011L70.1611 54.7058L77.2322 47.6348Z" fill="#FF00C7"/>
<path d="M72.4041 40.0879C71.6228 39.9629 70.8728 39.9004 70.1541 39.9004L63.083 46.9715C63.8018 46.9715 64.5518 47.034 65.333 47.159L72.4041 40.0879Z" fill="#FF00C7"/>
<path d="M94.5525 68.2832C96.9588 67.6895 98.9353 66.6738 100.482 65.2363L93.4111 72.3074C91.8643 73.7449 89.8877 74.7605 87.4814 75.3543L94.5525 68.2832Z" fill="#FF00C7"/>
<path d="M92.115 63.8301C91.5525 63.2051 91.2713 61.916 91.2713 59.9629L84.2002 67.034C84.2002 68.9871 84.4814 70.2761 85.0439 70.9011L92.115 63.8301Z" fill="#FF00C7"/>
<path d="M95.0447 64.6035C93.5603 64.6035 92.5838 64.3457 92.115 63.8301L85.0439 70.9011C85.5127 71.4168 86.4893 71.6746 87.9736 71.6746L95.0447 64.6035Z" fill="#FF00C7"/>
<path d="M74.326 47.6348H77.2322L70.1611 54.7058H67.2549L74.326 47.6348Z" fill="#FF00C7"/>
<path d="M73.0838 43.7676C73.8806 44.502 74.2947 45.791 74.326 47.6348L67.2549 54.7058C67.2236 52.8621 66.8096 51.573 66.0127 50.8386L73.0838 43.7676Z" fill="#FF00C7"/>
<path d="M69.1697 42.6426C70.9666 42.6426 72.2713 43.0176 73.0838 43.7676L66.0127 50.8386C65.2002 50.0886 63.8955 49.7136 62.0986 49.7136L69.1697 42.6426Z" fill="#FF00C7"/>
<path d="M70.1541 39.9004C67.5916 39.9004 65.365 40.5488 63.4744 41.8457L56.4033 48.9168C58.2939 47.6199 60.5205 46.9715 63.083 46.9715L70.1541 39.9004Z" fill="#FF00C7"/>
<path d="M92.1385 68.5879C92.9822 68.5879 93.7869 68.4863 94.5525 68.2832L87.4814 75.3543C86.7158 75.5574 85.9111 75.659 85.0674 75.659L92.1385 68.5879Z" fill="#FF00C7"/>
<path d="M65.7395 43.7731C66.4935 43.0194 67.6369 42.6426 69.1697 42.6426L62.0987 49.7136C60.5659 49.7136 59.4225 50.0905 58.6685 50.8442L65.7395 43.7731Z" fill="#FF00C7"/>
<path d="M47.3748 28.3145C47.3748 25.3522 47.6938 22.9141 48.3318 21L41.2607 28.0711C40.6227 29.9851 40.3037 32.4233 40.3037 35.3855L47.3748 28.3145Z" fill="#FF00C7"/>
<path d="M89.7947 68.3066C90.5135 68.4941 91.2947 68.5879 92.1385 68.5879L85.0674 75.659C84.2236 75.659 83.4424 75.5652 82.7236 75.3777L89.7947 68.3066Z" fill="#FF00C7"/>
<path d="M86.5369 62.6816C86.6306 64.916 87.1306 66.4707 88.0369 67.3457L80.9658 74.4168C80.0596 73.5418 79.5596 71.9871 79.4658 69.7527L86.5369 62.6816Z" fill="#FF00C7"/>
<path d="M65.0681 44.7518C65.2396 44.3755 65.463 44.0495 65.7385 43.7739L58.6684 50.844C58.3925 51.1198 58.1687 51.4461 57.9971 51.8229L65.0681 44.7518Z" fill="#FF00C7"/>
<path d="M88.0369 67.3457C88.5056 67.7988 89.0916 68.1191 89.7947 68.3066L82.7236 75.3777C82.0205 75.1902 81.4346 74.8699 80.9658 74.4168L88.0369 67.3457Z" fill="#FF00C7"/>
<path d="M63.4745 41.8457C63.0382 42.1485 62.648 42.472 62.304 42.8162L55.2355 49.8847C55.5789 49.5415 55.9682 49.2188 56.4034 48.9168L63.4745 41.8457Z" fill="#FF00C7"/>
<path d="M79.2947 60.2441C79.2322 57.2129 76.8494 54.6035 72.1463 52.416L65.0752 59.4871C69.7783 61.6746 72.1611 64.284 72.2236 67.3152L79.2947 60.2441Z" fill="#FF00C7"/>
<path d="M64.7635 46.4395C64.7635 45.7988 64.865 45.2363 65.0681 44.752L57.9971 51.823C57.7939 52.3074 57.6924 52.8699 57.6924 53.5105L64.7635 46.4395Z" fill="#FF00C7"/>
<path d="M72.1463 52.416L69.3572 51.1738L62.2861 58.2449L65.0752 59.4871L72.1463 52.416Z" fill="#FF00C7"/>
<path d="M65.2088 48.1035C64.9119 47.6191 64.7635 47.0645 64.7635 46.4395L57.6924 53.5105C57.6924 54.1355 57.8408 54.6902 58.1377 55.1746L65.2088 48.1035Z" fill="#FF00C7"/>
<path d="M69.3572 51.1738C68.2166 50.6738 67.24 50.0957 66.4275 49.4395L59.3564 56.5105C60.1689 57.1668 61.1455 57.7449 62.2861 58.2449L69.3572 51.1738Z" fill="#FF00C7"/>
<path d="M66.4275 49.4395C65.9275 49.0332 65.5213 48.5879 65.2088 48.1035L58.1377 55.1746C58.4502 55.659 58.8564 56.1043 59.3564 56.5105L66.4275 49.4395Z" fill="#FF00C7"/>
<path d="M48.3318 21L31.2761 25.8877L24.2051 32.9588L41.2607 28.0711L48.3318 21Z" fill="#FF00C7"/>
<path d="M62.3039 42.8164C60.9969 44.124 60.3559 45.7301 60.3806 47.635L53.3095 54.706C53.2848 52.8012 53.9259 51.195 55.2328 49.8875L62.3039 42.8164Z" fill="#FF00C7"/>
<path d="M47.3748 35.3555V28.3145L40.3037 35.3855V42.4265L47.3748 35.3555Z" fill="#FF00C7"/>
<path d="M77.1509 65.6999C78.6066 64.2434 79.3212 62.4248 79.2946 60.2441L72.2235 67.3152C72.2501 69.4959 71.5356 71.3145 70.0798 72.7709L77.1509 65.6999Z" fill="#FF00C7"/>
<path d="M72.4978 58.2988C73.1228 58.7051 73.6385 59.1973 74.0447 59.7754L66.9736 66.8465C66.5674 66.2683 66.0518 65.7761 65.4268 65.3699L72.4978 58.2988Z" fill="#FF00C7"/>
<path d="M70.4822 57.2441C71.2166 57.541 71.8885 57.8926 72.4978 58.2988L65.4268 65.3699C64.8174 64.9636 64.1455 64.6121 63.4111 64.3152L70.4822 57.2441Z" fill="#FF00C7"/>
<path d="M74.0447 59.7754C74.4666 60.3535 74.6775 61.041 74.6775 61.8379L67.6064 68.909C67.6064 68.1121 67.3955 67.4246 66.9736 66.8465L74.0447 59.7754Z" fill="#FF00C7"/>
<path d="M68.2088 56.2598C69.0056 56.6191 69.7635 56.9473 70.4822 57.2441L63.4111 64.3152C62.6924 64.0183 61.9346 63.6902 61.1377 63.3308L68.2088 56.2598Z" fill="#FF00C7"/>
<path d="M74.6775 61.8379C74.6775 62.6191 74.5681 63.252 74.3494 63.7363L67.2783 70.8074C67.4971 70.323 67.6064 69.6902 67.6064 68.909L74.6775 61.8379Z" fill="#FF00C7"/>
<path d="M60.3806 47.6348C60.4119 49.791 61.3025 51.6426 63.0525 53.1895L55.9814 60.2605C54.2314 58.7136 53.3408 56.8621 53.3096 54.7058L60.3806 47.6348Z" fill="#FF00C7"/>
<path d="M65.6072 54.9473C66.5603 55.4473 67.4275 55.8848 68.2088 56.2598L61.1377 63.3308C60.3564 62.9558 59.4893 62.5183 58.5361 62.0183L65.6072 54.9473Z" fill="#FF00C7"/>
<path d="M76.3181 66.4315C76.6173 66.1996 76.894 65.9566 77.148 65.7027L70.0799 72.7708C69.825 73.0258 69.5474 73.2697 69.2471 73.5025L76.3181 66.4315Z" fill="#FF00C7"/>
<path d="M63.0525 53.1895C63.8181 53.8613 64.6697 54.4473 65.6072 54.9473L58.5361 62.0183C57.5986 61.5183 56.7471 60.9324 55.9814 60.2605L63.0525 53.1895Z" fill="#FF00C7"/>
<path d="M74.3495 63.7363C74.2055 64.0539 74.0122 64.3339 73.7696 64.5764L66.6993 71.6466C66.9416 71.4043 67.1346 71.1246 67.2784 70.8074L74.3495 63.7363Z" fill="#FF00C7"/>
<path d="M37.531 28.8613C39.24 28.8613 40.0945 30.3083 40.0945 33.2021L33.0234 40.2732C33.0234 37.3793 32.1689 35.9324 30.46 35.9324L37.531 28.8613Z" fill="#FF00C7"/>
<path d="M73.7695 64.5767C72.9854 65.3603 71.6866 65.7522 69.8728 65.7522L62.8018 72.8233C64.6155 72.8233 65.9144 72.4314 66.6984 71.6477L73.7695 64.5767Z" fill="#FF00C7"/>
<path d="M69.6619 68.5879C72.2713 68.5879 74.49 67.8691 76.3181 66.4316L69.2471 73.5027C67.4189 74.9402 65.2002 75.659 62.5908 75.659L69.6619 68.5879Z" fill="#FF00C7"/>
<path d="M32.5066 30.3652C34.5118 29.3626 36.1866 28.8613 37.531 28.8613L30.46 35.9324C29.1156 35.9324 27.4408 36.4337 25.4355 37.4363L32.5066 30.3652Z" fill="#FF00C7"/>
<path d="M47.3406 48.959L47.3748 35.3555L40.3037 42.4265L40.2695 56.0301L47.3406 48.959Z" fill="#FF00C7"/>
<path d="M40.0945 33.2021V36.8594L33.0234 43.9304V40.2732L40.0945 33.2021Z" fill="#FF00C7"/>
<path d="M31.2761 25.8877L32.5066 30.3652L25.4355 37.4363L24.2051 32.9588L31.2761 25.8877Z" fill="#FF00C7"/>
<path d="M69.8728 65.752C67.7791 65.752 66.2478 65.3066 65.2791 64.416L58.208 71.4871C59.1768 72.3777 60.708 72.823 62.8018 72.823L69.8728 65.752Z" fill="#FF00C7"/>
<path d="M65.2791 64.416C64.326 63.5254 63.8103 62.1191 63.7322 60.1973L56.6611 67.2683C56.7393 69.1902 57.2549 70.5965 58.208 71.4871L65.2791 64.416Z" fill="#FF00C7"/>
<path d="M63.7322 60.1973H60.6853L53.6143 67.2683H56.6611L63.7322 60.1973Z" fill="#FF00C7"/>
<path d="M65.6541 68.1426C67.076 68.4395 68.4119 68.5879 69.6619 68.5879L62.5908 75.659C61.3408 75.659 60.0049 75.5105 58.583 75.2136L65.6541 68.1426Z" fill="#FF00C7"/>
<path d="M40.0945 36.8594L40.1287 48.4805L33.0576 55.5515L33.0234 43.9304L40.0945 36.8594Z" fill="#FF00C7"/>
<path d="M60.6853 60.1973C60.451 62.1035 60.3025 64.541 60.24 67.5098L53.1689 74.5808C53.2314 71.6121 53.3799 69.1746 53.6143 67.2683L60.6853 60.1973Z" fill="#FF00C7"/>
<path d="M61.74 67.4629C62.0838 67.4629 63.3885 67.6895 65.6541 68.1426L58.583 75.2136C56.3174 74.7605 55.0127 74.534 54.6689 74.534L61.74 67.4629Z" fill="#FF00C7"/>
<path d="M60.8494 67.4629H61.74L54.6689 74.534H53.7783L60.8494 67.4629Z" fill="#FF00C7"/>
<path d="M47.3406 59.3496V48.959L40.2695 56.0301V66.4207L47.3406 59.3496Z" fill="#FF00C7"/>
<path d="M60.24 67.5098C60.4119 67.4785 60.615 67.4629 60.8494 67.4629L53.7783 74.534C53.5439 74.534 53.3408 74.5496 53.1689 74.5808L60.24 67.5098Z" fill="#FF00C7"/>
<path d="M55.2019 68.2363L55.6463 63.998L48.5752 71.0691L48.1309 75.3074L55.2019 68.2363Z" fill="#FF00C7"/>
<path d="M55.6463 63.998C53.5955 64.4082 51.9321 64.6133 50.656 64.6133L43.585 71.6843C44.861 71.6843 46.5244 71.4793 48.5752 71.0691L55.6463 63.998Z" fill="#FF00C7"/>
<path d="M40.1287 48.4805V56.752L33.0576 63.823V55.5515L40.1287 48.4805Z" fill="#FF00C7"/>
<path d="M47.7166 63.2461C47.4659 62.7676 47.3406 61.4688 47.3406 59.3496L40.2695 66.4207C40.2695 68.5398 40.3949 69.8386 40.6455 70.3172L47.7166 63.2461Z" fill="#FF00C7"/>
<path d="M50.656 64.6133C49.1293 64.6133 48.1495 64.1576 47.7166 63.2461L40.6455 70.3172C41.0785 71.2286 42.0583 71.6843 43.585 71.6843L50.656 64.6133Z" fill="#FF00C7"/>
<path d="M40.1287 56.752C40.1287 59.9876 39.8097 62.1068 39.1717 63.1094L32.1006 70.1804C32.7386 69.1778 33.0576 67.0587 33.0576 63.823L40.1287 56.752Z" fill="#FF00C7"/>
<path d="M39.1716 63.1094C39.0575 63.2868 38.9294 63.4466 38.7871 63.5888L31.717 70.6589C31.8589 70.517 31.9867 70.3575 32.1005 70.1804L39.1716 63.1094Z" fill="#FF00C7"/>
<path d="M31.0711 68.2363H55.2019L48.1309 75.3074H24L31.0711 68.2363Z" fill="#FF00C7"/>
<path d="M38.7872 63.5889C38.4179 63.958 37.9536 64.2083 37.3943 64.3399L30.3232 71.411C30.8825 71.2794 31.3468 71.029 31.7161 70.6599L38.7872 63.5889Z" fill="#FF00C7"/>
<path d="M37.3943 64.3398C36.6424 64.5221 35.617 64.6133 34.3181 64.6133L27.2471 71.6843C28.5459 71.6843 29.5713 71.5932 30.3232 71.4109L37.3943 64.3398Z" fill="#FF00C7"/>
<path d="M34.3181 64.6133H31.5496L24.4785 71.6843H27.2471L34.3181 64.6133Z" fill="#FF00C7"/>
<path d="M31.5496 64.6133L31.0711 68.2363L24 75.3074L24.4785 71.6843L31.5496 64.6133Z" fill="#FF00C7"/>
<path d="M45.2539 37.1191L45.2197 50.7227V61.1133C45.2197 63.2324 45.3451 64.5312 45.5957 65.0098C46.0286 65.9212 47.0085 66.377 48.5352 66.377C49.8112 66.377 51.4746 66.1719 53.5254 65.7617L53.0811 70H28.9502L29.4287 66.377H32.1973C33.4961 66.377 34.5215 66.2858 35.2734 66.1035C36.0482 65.9212 36.6406 65.5111 37.0508 64.873C37.6888 63.8704 38.0078 61.7513 38.0078 58.5156V50.2441L37.9736 38.623V34.9658C37.9736 32.0719 37.1191 30.625 35.4102 30.625C34.0658 30.625 32.391 31.1263 30.3857 32.1289L29.1553 27.6514L46.2109 22.7637C45.5729 24.6777 45.2539 27.1159 45.2539 30.0781C45.2539 30.0781 45.2539 32.4251 45.2539 37.1191ZM75.791 41.8516C75.8379 42.1328 75.8613 42.6406 75.8613 43.375C75.8613 44.1094 75.7754 45.0156 75.6035 46.0938L75.1113 49.3984H72.2051C72.1738 47.5547 71.7598 46.2656 70.9629 45.5312C70.1504 44.7812 68.8457 44.4062 67.0488 44.4062C64.9551 44.4062 63.5879 45.1094 62.9473 46.5156C62.7441 47 62.6426 47.5625 62.6426 48.2031C62.6426 48.8281 62.791 49.3828 63.0879 49.8672C63.4004 50.3516 63.8066 50.7969 64.3066 51.2031C65.1191 51.8594 66.0957 52.4375 67.2363 52.9375L70.0254 54.1797C74.7285 56.3672 77.1113 58.9766 77.1738 62.0078C77.2051 64.5703 76.2129 66.6328 74.1973 68.1953C72.3691 69.6328 70.1504 70.3516 67.541 70.3516C66.291 70.3516 64.9551 70.2031 63.5332 69.9062C61.2676 69.4531 59.9629 69.2266 59.6191 69.2266H58.7285C58.4941 69.2266 58.291 69.2422 58.1191 69.2734C58.1816 66.3047 58.3301 63.8672 58.5645 61.9609H61.6113C61.6895 63.8828 62.2051 65.2891 63.1582 66.1797C64.127 67.0703 65.6582 67.5156 67.752 67.5156C70.127 67.5156 71.6191 66.8438 72.2285 65.5C72.4473 65.0156 72.5566 64.3828 72.5566 63.6016C72.5566 62.8047 72.3457 62.1172 71.9238 61.5391C71.5176 60.9609 71.002 60.4688 70.377 60.0625C69.7676 59.6562 69.0957 59.3047 68.3613 59.0078C67.6426 58.7109 66.8848 58.3828 66.0879 58.0234C65.3066 57.6484 64.4395 57.2109 63.4863 56.7109C62.5488 56.2109 61.6973 55.625 60.9316 54.9531C59.1816 53.4062 58.291 51.5547 58.2598 49.3984C58.2285 46.9922 59.2598 45.0625 61.3535 43.6094C63.2441 42.3125 65.4707 41.6641 68.0332 41.6641C68.752 41.6641 69.502 41.7266 70.2832 41.8516C71.752 42.0859 72.791 42.2031 73.4004 42.2031C74.0098 42.2031 74.8066 42.0859 75.791 41.8516ZM97.3301 65.0078L98.3613 67C96.8145 68.4375 94.8379 69.4531 92.4316 70.0469C91.666 70.25 90.8613 70.3516 90.0176 70.3516C89.1738 70.3516 88.3926 70.2578 87.6738 70.0703C86.9707 69.8828 86.3848 69.5625 85.916 69.1094C85.0098 68.2344 84.5098 66.6797 84.416 64.4453V45.6953H80.3379L80.5254 43.3047C82.7129 42.9141 84.2285 42.0938 85.0723 40.8438C85.7441 39.8438 86.3145 37.8672 86.7832 34.9141H89.3379V42.1094H97.9863V45.6953H89.1504V61.7266C89.1504 63.6797 89.4316 64.9688 89.9941 65.5938C90.4629 66.1094 91.4395 66.3672 92.9238 66.3672C94.4082 66.3672 95.877 65.9141 97.3301 65.0078Z" fill="#00FFD1"/>
</svg>
