<svg width="168" height="119" viewBox="0 0 168 119" fill="none" xmlns="http://www.w3.org/2000/svg">
<g filter="url(#filter0_d_206_4834)">
<path d="M5.46973 44.6689C5.05957 40.8408 4.85449 37.3659 4.85449 34.2441V32.0566C6.97363 32.1478 9.2181 31.9313 11.5879 31.4072C16.1224 30.4046 19.5404 29.9033 21.8418 29.9033C24.166 29.9033 26.2965 30.2109 28.2334 30.8262C30.193 31.4186 31.8564 32.2959 33.2236 33.458C36.0264 35.805 37.4277 39.0977 37.4277 43.3359C37.4277 48.6224 33.8958 54.6836 26.832 61.5195C26.6595 61.6863 26.4869 61.8515 26.3143 62.0151C26.0316 62.2831 25.7488 62.5467 25.466 62.8059C24.5542 63.6418 23.6423 64.4321 22.7305 65.1768L18.8682 68.2529C17.6833 69.1416 16.6465 69.8936 15.7578 70.5088L13.8096 71.8418H28.541C30.2728 71.8418 31.7083 71.2038 32.8477 69.9277C33.873 68.8112 34.5566 67.2845 34.8984 65.3477H39.5811C39.5811 67.1934 39.376 69.4264 38.9658 72.0469C38.5784 74.6445 38.2936 76.3193 38.1113 77.0713H5.50391C4.93424 76.9346 4.47852 76.3079 4.13672 75.1914C4.04557 74.8952 4 74.6217 4 74.3711C4.54688 74.0065 5.83431 73.0495 7.8623 71.5C9.68011 70.1063 11.4174 68.7037 13.074 67.2922C13.2864 67.1113 13.4974 66.9302 13.707 66.749C13.9452 66.5428 14.1832 66.3345 14.4211 66.1242C14.9978 65.6141 15.5735 65.0921 16.1482 64.558C16.8077 63.9451 17.4658 63.3164 18.1224 62.6719C18.5082 62.2932 18.8935 61.9091 19.2783 61.5195C19.7474 61.0447 20.204 60.5661 20.648 60.0839C21.9512 58.6687 23.1467 57.2218 24.2344 55.7432C27.5612 51.2314 29.2246 47.1527 29.2246 43.5068C29.2246 40.5218 28.4271 38.1292 26.832 36.3291C25.2598 34.529 23.4596 33.6289 21.4316 33.6289C19.4036 33.6289 17.7288 33.8226 16.4072 34.21C15.0856 34.5973 13.9805 35.2354 13.0918 36.124C11.2461 37.9014 10.346 40.7497 10.3916 44.6689H5.46973Z" fill="#FF00C7"/>
<path d="M48.0234 74.5869C49.1329 74.5869 49.9279 74.3468 50.4084 73.8665C50.4896 73.7854 50.5618 73.6974 50.625 73.6025C51.125 72.8525 51.375 71.3057 51.375 68.9619V57.6416C51.375 55.7666 51.1484 54.5244 50.6953 53.915C50.2422 53.29 49.1953 52.9775 47.5547 52.9775L47.9297 50.0244L56.3203 48.7588C56.1484 50.0244 56.0625 51.3682 56.0625 52.79C58.0625 51.1494 60.1562 49.9619 62.3438 49.2275C63.2812 48.8994 64.25 48.7354 65.25 48.7354C66.25 48.7354 67.2188 48.8838 68.1562 49.1807C69.1094 49.4775 69.9375 49.9619 70.6406 50.6338C72.1875 52.0869 72.9609 54.251 72.9609 57.126C72.9609 58.876 72.9062 60.5869 72.7969 62.2588C72.5 67.2744 72.4062 70.3291 72.5156 71.4229C72.6406 72.5166 72.7812 73.2432 72.9375 73.6025C73.2344 74.2588 73.7656 74.5869 74.5312 74.5869C75.2656 74.5869 75.9297 74.4932 76.5234 74.3057L76.1719 77.0713H64.1719L64.5938 74.5869C65.8906 74.5869 66.7812 74.3057 67.2656 73.7432C67.4688 73.5088 67.6172 73.1885 67.7109 72.7822C67.8203 72.3604 67.9062 71.8291 67.9688 71.1885C68.0469 70.5479 68.1094 69.7744 68.1562 68.8682C68.25 67.0244 68.2969 64.9385 68.2969 62.6104C68.2969 60.2666 68.25 58.5635 68.1562 57.501C68.0781 56.4229 67.875 55.5557 67.5469 54.8994C66.9219 53.6182 65.5469 52.9775 63.4219 52.9775C61.4531 52.9775 59.375 53.6494 57.1875 54.9932L56.0625 55.6729V71.4229C56.0625 72.8291 56.1719 73.6807 56.3906 73.9775C56.6094 74.2744 56.8594 74.4541 57.1406 74.5166C57.4219 74.5635 57.7344 74.5869 58.0781 74.5869C58.875 74.5869 59.6172 74.501 60.3047 74.3291L59.9062 77.0713H47.6484L48.0234 74.5869Z" fill="#FF00C7"/>
<path d="M84.8169 52.6313C86.3479 51.0995 88.185 49.9961 90.3281 49.3213C91.5156 48.9307 92.8906 48.7354 94.4531 48.7354C96.0312 48.7354 97.6328 48.9541 99.2578 49.3916V48.9229C99.2578 45.2354 99.1953 43.2041 99.0703 42.8291C98.9453 42.4385 98.7891 42.1572 98.6016 41.9854C98.4297 41.8135 98.1953 41.665 97.8984 41.54C97.6172 41.415 97.3047 41.3213 96.9609 41.2588C96.5234 41.1963 95.7656 41.165 94.6875 41.165H94.2422L94.5938 38.4932L104.344 37.1338C104.344 37.2744 104.328 37.3916 104.297 37.4854C104.281 37.5791 104.25 37.7979 104.203 38.1416C104.156 38.4697 104.109 39.04 104.062 39.8525C103.938 42.0244 103.875 44.9463 103.875 48.6182V69.9932C103.875 71.2119 104.008 72.0713 104.273 72.5713C104.555 73.0713 104.945 73.3213 105.445 73.3213C106.102 73.3213 106.852 73.1729 107.695 72.876L108.375 72.665C108.344 72.8525 108.312 73.1182 108.281 73.4619C108.266 73.79 108.242 74.1338 108.211 74.4932C108.18 74.8525 108.156 75.2432 108.141 75.665L100.781 77.4932C100.609 77.415 100.367 76.9385 100.055 76.0635C99.7578 75.1885 99.5547 74.5479 99.4453 74.1416C97.4609 75.5479 95.3516 76.54 93.1172 77.1182C92.3359 77.3213 91.3906 77.4229 90.2812 77.4229C89.1719 77.4229 87.9609 77.1416 86.6484 76.5791C85.3359 76.0166 84.2031 75.1807 83.25 74.0713C81.1719 71.7119 80.1328 68.4541 80.1328 64.2979C80.1328 61.5791 80.7578 59.001 82.0078 56.5635C82.7885 55.0347 83.7248 53.724 84.8169 52.6313ZM92.0156 73.1338C92.8906 73.1025 93.7344 73.001 94.5469 72.8291C95.3594 72.6572 96.0938 72.4619 96.75 72.2432C98.1406 71.79 98.9922 71.4072 99.3047 71.0947L99.2578 71.1182V54.0791C98.5703 53.0479 97.25 52.3213 95.2969 51.8994C94.7344 51.7744 94 51.7119 93.0938 51.7119C92.1875 51.7119 91.2031 51.9229 90.1406 52.3447C89.3316 52.6587 88.6111 53.1313 87.9794 53.7626C87.7937 53.9481 87.6157 54.1474 87.4453 54.3604C85.8828 56.3135 85.1016 59.376 85.1016 63.5479C85.1016 66.3604 85.8125 68.6963 87.2344 70.5557C88.5938 72.3213 90.1875 73.1807 92.0156 73.1338Z" fill="#FF00C7"/>
<path d="M111.368 30.4141C111.399 30.3203 111.415 30.2031 111.415 30.0625L104.344 37.1336C104.344 37.2742 104.328 37.3914 104.297 37.4851L111.368 30.4141Z" fill="#FF00C7"/>
<path d="M111.274 31.0703C111.321 30.7266 111.352 30.5078 111.368 30.4141L104.297 37.4851C104.281 37.5789 104.25 37.7976 104.203 38.1414L111.274 31.0703Z" fill="#FF00C7"/>
<path d="M111.134 32.7812C111.18 31.9688 111.227 31.3984 111.274 31.0703L104.203 38.1414C104.156 38.4695 104.109 39.0398 104.062 39.8523L111.134 32.7812Z" fill="#FF00C7"/>
<path d="M111.415 30.0625L101.665 31.4219L94.5938 38.4929L104.344 37.1336L111.415 30.0625Z" fill="#FF00C7"/>
<path d="M110.946 41.5469C110.946 37.875 111.009 34.9531 111.134 32.7812L104.062 39.8523C103.938 42.0242 103.875 44.9461 103.875 48.6179L110.946 41.5469Z" fill="#FF00C7"/>
<path d="M104.97 34.4688C105.266 34.5938 105.501 34.7422 105.673 34.9141L98.6016 41.9851C98.4297 41.8133 98.1953 41.6648 97.8984 41.5398L104.97 34.4688Z" fill="#FF00C7"/>
<path d="M105.673 34.9141C105.86 35.0859 106.016 35.3672 106.141 35.7578L99.0703 42.8289C98.9453 42.4383 98.7891 42.157 98.6016 41.9851L105.673 34.9141Z" fill="#FF00C7"/>
<path d="M104.032 34.1875C104.376 34.25 104.688 34.3438 104.97 34.4688L97.8984 41.5398C97.6172 41.4148 97.3047 41.3211 96.9609 41.2586L104.032 34.1875Z" fill="#FF00C7"/>
<path d="M101.759 34.0938C102.837 34.0938 103.595 34.125 104.032 34.1875L96.9609 41.2586C96.5234 41.1961 95.7656 41.1648 94.6875 41.1648L101.759 34.0938Z" fill="#FF00C7"/>
<path d="M101.665 31.4219L101.313 34.0938L94.2422 41.1648L94.5938 38.4929L101.665 31.4219Z" fill="#FF00C7"/>
<path d="M101.313 34.0938H101.759L94.6875 41.1648H94.2422L101.313 34.0938Z" fill="#FF00C7"/>
<path d="M106.141 35.7578C106.266 36.1328 106.329 38.1641 106.329 41.8516L99.2578 48.9226C99.2578 45.2351 99.1953 43.2039 99.0703 42.8289L106.141 35.7578Z" fill="#FF00C7"/>
<path d="M106.329 41.8516V42.3203L99.2578 49.3914V48.9226L106.329 41.8516Z" fill="#FF00C7"/>
<path d="M106.329 42.3203C104.704 41.8828 103.102 41.6641 101.524 41.6641L94.4531 48.7351C96.0312 48.7351 97.6328 48.9539 99.2578 49.3914L106.329 42.3203Z" fill="#FF00C7"/>
<path d="M110.946 62.9219V41.5469L103.875 48.6179V69.9929L110.946 62.9219Z" fill="#FF00C7"/>
<path d="M102.368 44.8281C104.321 45.25 105.641 45.9766 106.329 47.0078L99.2578 54.0789C98.5703 53.0476 97.25 52.3211 95.2969 51.8992L102.368 44.8281Z" fill="#FF00C7"/>
<path d="M101.524 41.6641C99.9617 41.6641 98.5867 41.8594 97.3992 42.25L90.3281 49.3211C91.5156 48.9304 92.8906 48.7351 94.4531 48.7351L101.524 41.6641Z" fill="#FF00C7"/>
<path d="M100.165 44.6406C101.071 44.6406 101.805 44.7031 102.368 44.8281L95.2969 51.8992C94.7344 51.7742 94 51.7117 93.0938 51.7117L100.165 44.6406Z" fill="#FF00C7"/>
<path d="M97.2117 45.2734C98.2742 44.8516 99.2586 44.6406 100.165 44.6406L93.0938 51.7117C92.1875 51.7117 91.2031 51.9226 90.1406 52.3445L97.2117 45.2734Z" fill="#FF00C7"/>
<path d="M106.329 47.0078V64.0469L99.2578 71.1179V54.0789L106.329 47.0078Z" fill="#FF00C7"/>
<path d="M97.3992 42.25C95.256 42.9249 93.419 44.0282 91.888 45.56L84.822 52.626C86.352 51.0968 88.1874 49.9952 90.3281 49.3211L97.3992 42.25Z" fill="#FF00C7"/>
<path d="M95.0504 46.6913C95.6822 46.06 96.4026 45.5874 97.2117 45.2734L90.1406 52.3445C89.3315 52.6585 88.6111 53.1311 87.9794 53.7624L95.0504 46.6913Z" fill="#FF00C7"/>
<path d="M115.446 65.5938L114.766 65.8047L107.695 72.8758L108.375 72.6648L115.446 65.5938Z" fill="#FF00C7"/>
<path d="M115.352 66.3906C115.384 66.0469 115.415 65.7812 115.446 65.5938L108.375 72.6648C108.344 72.8523 108.312 73.1179 108.281 73.4617L115.352 66.3906Z" fill="#FF00C7"/>
<path d="M115.282 67.4219C115.313 67.0625 115.337 66.7188 115.352 66.3906L108.281 73.4617C108.266 73.7898 108.242 74.1336 108.211 74.4929L115.282 67.4219Z" fill="#FF00C7"/>
<path d="M94.5164 47.2892C94.6856 47.0776 94.8625 46.8796 95.0468 46.695L87.9794 53.7625C87.7937 53.948 87.6157 54.1473 87.4453 54.3602L94.5164 47.2892Z" fill="#FF00C7"/>
<path d="M114.766 65.8047C113.923 66.1016 113.173 66.25 112.516 66.25L105.445 73.3211C106.102 73.3211 106.852 73.1726 107.695 72.8758L114.766 65.8047Z" fill="#FF00C7"/>
<path d="M115.212 68.5938C115.227 68.1719 115.251 67.7812 115.282 67.4219L108.211 74.4929C108.18 74.8523 108.156 75.2429 108.141 75.6648L115.212 68.5938Z" fill="#FF00C7"/>
<path d="M111.345 65.5C111.079 65 110.946 64.1406 110.946 62.9219L103.875 69.9929C103.875 71.2117 104.008 72.0711 104.273 72.5711L111.345 65.5Z" fill="#FF00C7"/>
<path d="M112.516 66.25C112.016 66.25 111.626 66 111.345 65.5L104.273 72.5711C104.555 73.0711 104.945 73.3211 105.445 73.3211L112.516 66.25Z" fill="#FF00C7"/>
<path d="M91.888 45.5601C90.7959 46.6528 89.8595 47.9635 89.0789 49.4922L82.0078 56.5633C82.7885 55.0345 83.7248 53.7238 84.8169 52.6311L91.888 45.5601Z" fill="#FF00C7"/>
<path d="M106.329 64.0469L106.376 64.0234L99.3047 71.0945L99.2578 71.1179L106.329 64.0469Z" fill="#FF00C7"/>
<path d="M107.852 70.4219L115.212 68.5938L108.141 75.6648L100.781 77.4929L107.852 70.4219Z" fill="#FF00C7"/>
<path d="M92.1726 56.4766C92.1726 52.3047 92.9539 49.2422 94.5164 47.2891L87.4453 54.3601C85.8828 56.3133 85.1016 59.3758 85.1016 63.5476L92.1726 56.4766Z" fill="#FF00C7"/>
<path d="M106.376 64.0234C106.063 64.3359 105.212 64.7188 103.821 65.1719L96.75 72.2429C98.1406 71.7898 98.9922 71.407 99.3047 71.0945L106.376 64.0234Z" fill="#FF00C7"/>
<path d="M106.516 67.0703C106.626 67.4766 106.829 68.1172 107.126 68.9922L100.055 76.0633C99.7578 75.1883 99.5547 74.5476 99.4453 74.1414L106.516 67.0703Z" fill="#FF00C7"/>
<path d="M107.126 68.9922C107.438 69.8672 107.68 70.3438 107.852 70.4219L100.781 77.4929C100.609 77.4148 100.367 76.9383 100.055 76.0633L107.126 68.9922Z" fill="#FF00C7"/>
<path d="M103.821 65.1719C103.165 65.3906 102.43 65.5859 101.618 65.7578L94.5469 72.8289C95.3594 72.657 96.0938 72.4617 96.75 72.2429L103.821 65.1719Z" fill="#FF00C7"/>
<path d="M100.188 70.0469C102.423 69.4688 104.532 68.4766 106.516 67.0703L99.4453 74.1414C97.4609 75.5476 95.3516 76.5398 93.1172 77.1179L100.188 70.0469Z" fill="#FF00C7"/>
<path d="M89.0789 49.4922C87.8289 51.9297 87.2039 54.5078 87.2039 57.2266L80.1328 64.2976C80.1328 61.5789 80.7578 59.0008 82.0078 56.5633L89.0789 49.4922Z" fill="#FF00C7"/>
<path d="M101.618 65.7578C100.805 65.9297 99.9617 66.0312 99.0867 66.0625L92.0156 73.1336C92.8906 73.1023 93.7344 73.0008 94.5469 72.8289L101.618 65.7578Z" fill="#FF00C7"/>
<path d="M77.7117 43.5625C77.0086 42.8906 76.1804 42.4062 75.2273 42.1094L68.1562 49.1804C69.1094 49.4773 69.9375 49.9617 70.6406 50.6336L77.7117 43.5625Z" fill="#FF00C7"/>
<path d="M94.3054 63.4844C92.8836 61.625 92.1726 59.2891 92.1726 56.4766L85.1016 63.5476C85.1016 66.3601 85.8125 68.6961 87.2344 70.5554L94.3054 63.4844Z" fill="#FF00C7"/>
<path d="M80.032 50.0547C80.032 47.1797 79.2586 45.0156 77.7117 43.5625L70.6406 50.6336C72.1875 52.0867 72.9609 54.2508 72.9609 57.1258L80.032 50.0547Z" fill="#FF00C7"/>
<path d="M99.0867 66.0625C97.2586 66.1094 95.6648 65.25 94.3054 63.4844L87.2344 70.5554C88.5938 72.3211 90.1875 73.1804 92.0156 73.1336L99.0867 66.0625Z" fill="#FF00C7"/>
<path d="M75.2273 42.1094C74.2898 41.8125 73.3211 41.6641 72.3211 41.6641L65.25 48.7351C66.25 48.7351 67.2188 48.8836 68.1562 49.1804L75.2273 42.1094Z" fill="#FF00C7"/>
<path d="M72.3211 41.6641C71.3211 41.6641 70.3523 41.8281 69.4148 42.1562L62.3438 49.2273C63.2812 48.8992 64.25 48.7351 65.25 48.7351L72.3211 41.6641Z" fill="#FF00C7"/>
<path d="M97.3523 70.3516C98.4617 70.3516 99.407 70.25 100.188 70.0469L93.1172 77.1179C92.3359 77.3211 91.3906 77.4226 90.2812 77.4226L97.3523 70.3516Z" fill="#FF00C7"/>
<path d="M79.8679 55.1875C79.9773 53.5156 80.032 51.8047 80.032 50.0547L72.9609 57.1258C72.9609 58.8758 72.9062 60.5867 72.7969 62.2586L79.8679 55.1875Z" fill="#FF00C7"/>
<path d="M87.2039 57.2266C87.2039 61.3828 88.2429 64.6406 90.3211 67L83.25 74.0711C81.1719 71.7117 80.1328 68.4539 80.1328 64.2976L87.2039 57.2266Z" fill="#FF00C7"/>
<path d="M74.6179 47.8281C74.9461 48.4844 75.1492 49.3516 75.2273 50.4297L68.1562 57.5008C68.0781 56.4226 67.875 55.5554 67.5469 54.8992L74.6179 47.8281Z" fill="#FF00C7"/>
<path d="M70.4929 45.9062C72.6179 45.9062 73.9929 46.5469 74.6179 47.8281L67.5469 54.8992C66.9219 53.6179 65.5469 52.9773 63.4219 52.9773L70.4929 45.9062Z" fill="#FF00C7"/>
<path d="M93.7195 69.5078C95.032 70.0703 96.2429 70.3516 97.3523 70.3516L90.2812 77.4226C89.1719 77.4226 87.9609 77.1414 86.6484 76.5789L93.7195 69.5078Z" fill="#FF00C7"/>
<path d="M90.3211 67C91.2742 68.1094 92.407 68.9453 93.7195 69.5078L86.6484 76.5789C85.3359 76.0164 84.2031 75.1804 83.25 74.0711L90.3211 67Z" fill="#FF00C7"/>
<path d="M69.4148 42.1562C67.2273 42.8906 65.1336 44.0781 63.1336 45.7188L56.0625 52.7898C58.0625 51.1492 60.1562 49.9617 62.3438 49.2273L69.4148 42.1562Z" fill="#FF00C7"/>
<path d="M75.2273 50.4297C75.3211 51.4922 75.3679 53.1953 75.3679 55.5391L68.2969 62.6101C68.2969 60.2664 68.25 58.5633 68.1562 57.5008L75.2273 50.4297Z" fill="#FF00C7"/>
<path d="M64.2586 47.9219C66.4461 46.5781 68.5242 45.9062 70.4929 45.9062L63.4219 52.9773C61.4531 52.9773 59.375 53.6492 57.1875 54.9929L64.2586 47.9219Z" fill="#FF00C7"/>
<path d="M79.5867 64.3516C79.4773 63.2578 79.571 60.2031 79.8679 55.1875L72.7969 62.2586C72.5 67.2742 72.4062 70.3289 72.5156 71.4226L79.5867 64.3516Z" fill="#FF00C7"/>
<path d="M63.1336 45.7188C63.1336 44.2969 63.2195 42.9531 63.3914 41.6875L56.3203 48.7586C56.1484 50.0242 56.0625 51.3679 56.0625 52.7898L63.1336 45.7188Z" fill="#FF00C7"/>
<path d="M63.3914 41.6875L55.0008 42.9531L47.9297 50.0242L56.3203 48.7586L63.3914 41.6875Z" fill="#FF00C7"/>
<path d="M75.3679 55.5391C75.3679 57.8672 75.3211 59.9531 75.2273 61.7969L68.1562 68.8679C68.25 67.0242 68.2969 64.9383 68.2969 62.6101L75.3679 55.5391Z" fill="#FF00C7"/>
<path d="M63.1336 48.6016L64.2586 47.9219L57.1875 54.9929L56.0625 55.6726L63.1336 48.6016Z" fill="#FF00C7"/>
<path d="M83.5945 67.2344C83.0008 67.4219 82.3367 67.5156 81.6023 67.5156L74.5312 74.5867C75.2656 74.5867 75.9297 74.4929 76.5234 74.3054L83.5945 67.2344Z" fill="#FF00C7"/>
<path d="M83.2429 70L83.5945 67.2344L76.5234 74.3054L76.1719 77.0711L83.2429 70Z" fill="#FF00C7"/>
<path d="M80.0086 66.5312C79.8523 66.1719 79.7117 65.4453 79.5867 64.3516L72.5156 71.4226C72.6406 72.5164 72.7812 73.2429 72.9375 73.6023L80.0086 66.5312Z" fill="#FF00C7"/>
<path d="M81.6023 67.5156C80.8367 67.5156 80.3054 67.1875 80.0086 66.5312L72.9375 73.6023C73.2344 74.2586 73.7656 74.5867 74.5312 74.5867L81.6023 67.5156Z" fill="#FF00C7"/>
<path d="M40.2947 26.3867C38.9275 25.2246 37.2641 24.3473 35.3045 23.7549L28.2334 30.826C30.193 31.4184 31.8564 32.2957 33.2236 33.4578L40.2947 26.3867Z" fill="#FF00C7"/>
<path d="M75.2273 61.7969C75.1804 62.7031 75.1179 63.4766 75.0398 64.1172L67.9688 71.1883C68.0469 70.5476 68.1094 69.7742 68.1562 68.8679L75.2273 61.7969Z" fill="#FF00C7"/>
<path d="M44.4988 36.2646C44.4988 32.0264 43.0974 28.7337 40.2947 26.3867L33.2236 33.4578C36.0264 35.8048 37.4277 39.0974 37.4277 43.3357L44.4988 36.2646Z" fill="#FF00C7"/>
<path d="M55.0008 42.9531L54.6258 45.9062L47.5547 52.9773L47.9297 50.0242L55.0008 42.9531Z" fill="#FF00C7"/>
<path d="M75.0398 64.1172C74.9773 64.7578 74.8914 65.2891 74.782 65.7109L67.7109 72.782C67.8203 72.3601 67.9062 71.8289 67.9688 71.1883L75.0398 64.1172Z" fill="#FF00C7"/>
<path d="M54.6258 45.9062C56.2664 45.9062 57.3133 46.2188 57.7664 46.8438L50.6953 53.9148C50.2422 53.2898 49.1953 52.9773 47.5547 52.9773L54.6258 45.9062Z" fill="#FF00C7"/>
<path d="M57.7664 46.8438C58.2195 47.4531 58.4461 48.6953 58.4461 50.5703L51.375 57.6414C51.375 55.7664 51.1484 54.5242 50.6953 53.9148L57.7664 46.8438Z" fill="#FF00C7"/>
<path d="M35.3045 23.7549C33.3676 23.1396 31.2371 22.832 28.9129 22.832L21.8418 29.9031C24.166 29.9031 26.2965 30.2107 28.2334 30.826L35.3045 23.7549Z" fill="#FF00C7"/>
<path d="M74.782 65.7109C74.6883 66.1172 74.5398 66.4375 74.3367 66.6719L67.2656 73.7429C67.4688 73.5086 67.6172 73.1883 67.7109 72.782L74.782 65.7109Z" fill="#FF00C7"/>
<path d="M71.2429 70H83.2429L76.1719 77.0711H64.1719L71.2429 70Z" fill="#FF00C7"/>
<path d="M63.1336 64.3516V48.6016L56.0625 55.6726V71.4226L63.1336 64.3516Z" fill="#FF00C7"/>
<path d="M71.6648 67.5156C72.8143 67.5156 73.6447 67.2947 74.1558 66.8527L74.3367 66.6719C74.2817 66.7358 74.2214 66.7961 74.1558 66.8527L67.2656 73.7429C66.7812 74.3054 65.8906 74.5867 64.5938 74.5867L71.6648 67.5156Z" fill="#FF00C7"/>
<path d="M28.5027 26.5576C30.5307 26.5576 32.3308 27.4577 33.9031 29.2578L26.832 36.3289C25.2598 34.5287 23.4596 33.6287 21.4316 33.6287L28.5027 26.5576Z" fill="#FF00C7"/>
<path d="M71.6648 67.5156L71.2429 70L64.1719 77.0711L64.5938 74.5867L71.6648 67.5156Z" fill="#FF00C7"/>
<path d="M33.9031 29.2578C35.4982 31.0579 36.2957 33.4505 36.2957 36.4355L29.2246 43.5066C29.2246 40.5216 28.4271 38.129 26.832 36.3289L33.9031 29.2578Z" fill="#FF00C7"/>
<path d="M58.4461 50.5703V61.8906L51.375 68.9617V57.6414L58.4461 50.5703Z" fill="#FF00C7"/>
<path d="M28.9129 22.832C26.6114 22.832 23.1935 23.3333 18.659 24.3359L11.5879 31.407C16.1224 30.4044 19.5404 29.9031 21.8418 29.9031L28.9129 22.832Z" fill="#FF00C7"/>
<path d="M23.4783 27.1387C24.7999 26.7513 26.4747 26.5576 28.5027 26.5576L21.4316 33.6287C19.4036 33.6287 17.7288 33.8224 16.4072 34.2097L23.4783 27.1387Z" fill="#FF00C7"/>
<path d="M67.3758 67.2578C66.6883 67.4297 65.9461 67.5156 65.1492 67.5156L58.0781 74.5867C58.875 74.5867 59.6172 74.5008 60.3047 74.3289L67.3758 67.2578Z" fill="#FF00C7"/>
<path d="M66.9773 70L67.3758 67.2578L60.3047 74.3289L59.9062 77.0711L66.9773 70Z" fill="#FF00C7"/>
<path d="M63.4617 66.9062C63.2429 66.6094 63.1336 65.7578 63.1336 64.3516L56.0625 71.4226C56.0625 72.8289 56.1719 73.6804 56.3906 73.9773L63.4617 66.9062Z" fill="#FF00C7"/>
<path d="M65.1492 67.5156C64.8054 67.5156 64.4929 67.4922 64.2117 67.4453L57.1406 74.5164C57.4219 74.5633 57.7344 74.5867 58.0781 74.5867L65.1492 67.5156Z" fill="#FF00C7"/>
<path d="M64.2117 67.4453C63.9304 67.3828 63.6804 67.2031 63.4617 66.9062L56.3906 73.9773C56.6094 74.2742 56.8594 74.4539 57.1406 74.5164L64.2117 67.4453Z" fill="#FF00C7"/>
<path d="M58.4461 61.8906C58.4461 64.2344 58.1961 65.7812 57.6961 66.5312L50.625 73.6023C51.125 72.8523 51.375 71.3054 51.375 68.9617L58.4461 61.8906Z" fill="#FF00C7"/>
<path d="M44.4988 36.2646C44.4988 41.5511 40.9669 47.6123 33.9031 54.4482L28.511 59.8403C27.9755 60.3947 27.4158 60.9544 26.832 61.5193L28.511 59.8403C34.4555 53.6868 37.4277 48.1853 37.4277 43.3357L44.4988 36.2646Z" fill="#FF00C7"/>
<path d="M20.1629 29.0527C21.0515 28.1641 22.1567 27.526 23.4783 27.1387L16.4072 34.2097C15.0856 34.5971 13.9805 35.2351 13.0918 36.1238L20.1629 29.0527Z" fill="#FF00C7"/>
<path d="M36.2957 36.4355C36.2957 40.0814 34.6323 44.1602 31.3054 48.6719L24.2344 55.7429C27.5612 51.2312 29.2246 47.1524 29.2246 43.5066L36.2957 36.4355Z" fill="#FF00C7"/>
<path d="M57.6961 66.5312C57.6329 66.6261 57.5607 66.7141 57.4795 66.7952L50.4091 73.8657C50.49 73.7847 50.562 73.6969 50.625 73.6023L57.6961 66.5312Z" fill="#FF00C7"/>
<path d="M54.7195 70H66.9773L59.9062 77.0711H47.6484L54.7195 70Z" fill="#FF00C7"/>
<path d="M18.659 24.3359C16.2892 24.86 14.0447 25.0765 11.9256 24.9854L4.85449 32.0564C6.97363 32.1476 9.2181 31.9311 11.5879 31.407L18.659 24.3359Z" fill="#FF00C7"/>
<path d="M57.4795 66.7954C56.999 67.2757 56.204 67.5158 55.0945 67.5158L48.0234 74.5869C49.1329 74.5869 49.9279 74.3468 50.4084 73.8665L57.4795 66.7954Z" fill="#FF00C7"/>
<path d="M55.0945 67.5156L54.7195 70L47.6484 77.0711L48.0234 74.5867L55.0945 67.5156Z" fill="#FF00C7"/>
<path d="M46.6521 58.2764H41.9695L34.8984 65.3474H39.5811L46.6521 58.2764Z" fill="#FF00C7"/>
<path d="M11.9256 24.9854V27.1729L4.85449 34.2439V32.0564L11.9256 24.9854Z" fill="#FF00C7"/>
<path d="M19.9784 29.2372C20.0388 29.1745 20.1003 29.113 20.1629 29.0527L19.9784 29.2372C18.2572 31.0244 17.4186 33.8112 17.4627 37.5977L10.3916 44.6687C10.346 40.7495 11.2461 37.9011 13.0918 36.1238L19.9784 29.2372Z" fill="#FF00C7"/>
<path d="M46.0369 64.9756C46.447 62.3551 46.6521 60.1221 46.6521 58.2764L39.5811 65.3474C39.5811 67.1931 39.376 69.4262 38.9658 72.0467L46.0369 64.9756Z" fill="#FF00C7"/>
<path d="M41.9695 58.2764C41.6277 60.2132 40.9441 61.7399 39.9187 62.8564L32.8477 69.9275C33.873 68.811 34.5566 67.2843 34.8984 65.3474L41.9695 58.2764Z" fill="#FF00C7"/>
<path d="M11.9256 27.1729C11.9256 30.2946 12.1306 33.7695 12.5408 37.5977L5.46973 44.6687C5.05957 40.8406 4.85449 37.3657 4.85449 34.2439L11.9256 27.1729Z" fill="#FF00C7"/>
<path d="M33.3853 54.9438C33.5579 54.7802 33.7305 54.6151 33.903 54.4482L26.832 61.5193C26.6594 61.6861 26.4868 61.8513 26.3143 62.0149L33.3853 54.9438Z" fill="#FF00C7"/>
<path d="M31.3054 48.6719C30.2177 50.1505 29.0223 51.5974 27.7191 53.0126L20.648 60.0837C21.9512 58.6685 23.1467 57.2215 24.2344 55.7429L31.3054 48.6719Z" fill="#FF00C7"/>
<path d="M45.1824 70C45.3647 69.248 45.6495 67.5732 46.0369 64.9756L38.9658 72.0467C38.5785 74.6443 38.2936 76.3191 38.1113 77.0711L45.1824 70Z" fill="#FF00C7"/>
<path d="M32.5371 55.7346C32.8198 55.4754 33.1026 55.2118 33.3854 54.9438L26.3143 62.0149C26.0315 62.2829 25.7488 62.5465 25.466 62.8057L32.5371 55.7346Z" fill="#FF00C7"/>
<path d="M12.5408 37.5977H17.4627L10.3916 44.6687H5.46973L12.5408 37.5977Z" fill="#FF00C7"/>
<path d="M29.8015 58.1053C30.7134 57.3606 31.6253 56.5703 32.5371 55.7344L25.466 62.8054C24.5542 63.6414 23.6423 64.4316 22.7305 65.1763L29.8015 58.1053Z" fill="#FF00C7"/>
<path d="M35.6121 64.7705C37.0904 64.7705 38.3529 64.3056 39.3995 63.3757L39.9187 62.8564C39.752 63.0432 39.5789 63.2163 39.3995 63.3757L32.8477 69.9275C31.7083 71.2036 30.2728 71.8416 28.541 71.8416L35.6121 64.7705Z" fill="#FF00C7"/>
<path d="M27.7191 53.0127C27.275 53.4949 26.8185 53.9735 26.3494 54.4483L19.2783 61.5194C19.7474 61.0445 20.204 60.566 20.648 60.0838L27.7191 53.0127Z" fill="#FF00C7"/>
<path d="M25.1934 55.6006C25.2708 55.5246 25.3482 55.4485 25.4255 55.3721L26.3493 54.4482C26.0417 54.7597 25.7338 55.0676 25.4255 55.3721L19.2783 61.5193C18.8935 61.9089 18.5082 62.293 18.1224 62.6716L25.1934 55.6006Z" fill="#FF00C7"/>
<path d="M25.9392 61.1816L29.8015 58.1055L22.7305 65.1765L18.8682 68.2527L25.9392 61.1816Z" fill="#FF00C7"/>
<path d="M25.1935 55.6006C24.5368 56.2451 23.8787 56.8738 23.2192 57.4868L16.1481 64.5578C16.8077 63.9449 17.4657 63.3162 18.1224 62.6717L25.1935 55.6006Z" fill="#FF00C7"/>
<path d="M23.2192 57.4868C22.6446 58.0208 22.0689 58.5429 21.4921 59.053L14.421 66.124C14.9978 65.614 15.5735 65.0919 16.1481 64.5579L23.2192 57.4868Z" fill="#FF00C7"/>
<path d="M35.6121 64.7705H20.8806L13.8096 71.8416H28.541L35.6121 64.7705Z" fill="#FF00C7"/>
<path d="M22.8289 63.4375C23.7176 62.8223 24.7543 62.0703 25.9392 61.1816L18.8682 68.2527C17.6833 69.1414 16.6465 69.8933 15.7578 70.5086L22.8289 63.4375Z" fill="#FF00C7"/>
<path d="M21.4921 59.0527C21.2543 59.263 21.0163 59.4713 20.7781 59.6776L13.707 66.7486C13.9452 66.5424 14.1832 66.3341 14.4211 66.1238L21.4921 59.0527Z" fill="#FF00C7"/>
<path d="M20.7781 59.6777C20.5684 59.8589 20.3574 60.04 20.1451 60.2209L13.074 67.292C13.2864 67.1111 13.4974 66.93 13.707 66.7488L20.7781 59.6777Z" fill="#FF00C7"/>
<path d="M12.575 70H45.1824L38.1113 77.0711H5.50391L12.575 70Z" fill="#FF00C7"/>
<path d="M20.8806 64.7705L22.8289 63.4375L15.7578 70.5086L13.8096 71.8416L20.8806 64.7705Z" fill="#FF00C7"/>
<path d="M20.1451 60.2207C18.4884 61.6323 16.7512 63.0349 14.9334 64.4285L7.8623 71.4996C9.68011 70.1059 11.4174 68.7033 13.074 67.2918L20.1451 60.2207Z" fill="#FF00C7"/>
<path d="M14.9334 64.4287C12.9054 65.9782 11.6179 66.9352 11.0711 67.2998L4 74.3709C4.54688 74.0063 5.83431 73.0493 7.8623 71.4998L14.9334 64.4287Z" fill="#FF00C7"/>
<path d="M11.0711 67.2998C11.0711 67.5505 11.1166 67.8239 11.2078 68.1201L4.13672 75.1912C4.04557 74.895 4 74.6215 4 74.3709L11.0711 67.2998Z" fill="#FF00C7"/>
<path d="M11.2078 68.1201C11.5496 69.2367 12.0053 69.8633 12.575 70L5.50391 77.0711C4.93424 76.9343 4.47852 76.3077 4.13672 75.1912L11.2078 68.1201Z" fill="#FF00C7"/>
<path d="M12.5408 37.5977C12.1306 33.7695 11.9255 30.2946 11.9255 27.1729V24.9854C14.0447 25.0765 16.2891 24.86 18.6589 24.3359C23.1934 23.3333 26.6114 22.832 28.9128 22.832C31.2371 22.832 33.3676 23.1396 35.3044 23.7549C37.2641 24.3473 38.9275 25.2246 40.2947 26.3867C43.0974 28.7337 44.4988 32.0264 44.4988 36.2646C44.4988 41.5511 40.9669 47.6123 33.9031 54.4482C32.5359 55.7699 31.1687 56.9889 29.8015 58.1055L25.9392 61.1816C24.7543 62.0703 23.7175 62.8223 22.8289 63.4375L20.8806 64.7705H35.6121C37.3438 64.7705 38.7794 64.1325 39.9187 62.8564C40.9441 61.7399 41.6277 60.2132 41.9695 58.2764H46.6521C46.6521 60.1221 46.447 62.3551 46.0369 64.9756C45.6495 67.5732 45.3647 69.248 45.1824 70H12.575C12.0053 69.8633 11.5496 69.2367 11.2078 68.1201C11.1166 67.8239 11.071 67.5505 11.071 67.2998C11.6179 66.9352 12.9054 65.9782 14.9333 64.4287C16.9841 62.8564 18.9324 61.2728 20.7781 59.6777C22.6466 58.0599 24.5037 56.3167 26.3494 54.4482C28.1951 52.5798 29.8471 50.6543 31.3054 48.6719C34.6322 44.1602 36.2957 40.0814 36.2957 36.4355C36.2957 33.4505 35.4981 31.0579 33.9031 29.2578C32.3308 27.4577 30.5307 26.5576 28.5027 26.5576C26.4747 26.5576 24.7999 26.7513 23.4783 27.1387C22.1567 27.526 21.0515 28.1641 20.1628 29.0527C18.3171 30.8301 17.4171 33.6784 17.4626 37.5977H12.5408ZM55.0945 67.5156C56.3914 67.5156 57.2585 67.1875 57.696 66.5312C58.196 65.7812 58.446 64.2344 58.446 61.8906V50.5703C58.446 48.6953 58.2195 47.4531 57.7664 46.8438C57.3132 46.2188 56.2664 45.9062 54.6257 45.9062L55.0007 42.9531L63.3914 41.6875C63.2195 42.9531 63.1335 44.2969 63.1335 45.7188C65.1335 44.0781 67.2273 42.8906 69.4148 42.1562C70.3523 41.8281 71.321 41.6641 72.321 41.6641C73.321 41.6641 74.2898 41.8125 75.2273 42.1094C76.1804 42.4062 77.0085 42.8906 77.7117 43.5625C79.2585 45.0156 80.032 47.1797 80.032 50.0547C80.032 51.8047 79.9773 53.5156 79.8679 55.1875C79.571 60.2031 79.4773 63.2578 79.5867 64.3516C79.7117 65.4453 79.8523 66.1719 80.0085 66.5312C80.3054 67.1875 80.8367 67.5156 81.6023 67.5156C82.3367 67.5156 83.0007 67.4219 83.5945 67.2344L83.2429 70H71.2429L71.6648 67.5156C72.9617 67.5156 73.8523 67.2344 74.3367 66.6719C74.5398 66.4375 74.6882 66.1172 74.782 65.7109C74.8914 65.2891 74.9773 64.7578 75.0398 64.1172C75.1179 63.4766 75.1804 62.7031 75.2273 61.7969C75.321 59.9531 75.3679 57.8672 75.3679 55.5391C75.3679 53.1953 75.321 51.4922 75.2273 50.4297C75.1492 49.3516 74.946 48.4844 74.6179 47.8281C73.9929 46.5469 72.6179 45.9062 70.4929 45.9062C68.5242 45.9062 66.446 46.5781 64.2585 47.9219L63.1335 48.6016V64.3516C63.1335 65.7578 63.2429 66.6094 63.4617 66.9062C63.6804 67.2031 63.9304 67.3828 64.2117 67.4453C64.4929 67.4922 64.8054 67.5156 65.1492 67.5156C65.946 67.5156 66.6882 67.4297 67.3757 67.2578L66.9773 70H54.7195L55.0945 67.5156ZM97.3992 42.25C98.5867 41.8594 99.9617 41.6641 101.524 41.6641C103.102 41.6641 104.704 41.8828 106.329 42.3203V41.8516C106.329 38.1641 106.266 36.1328 106.141 35.7578C106.016 35.3672 105.86 35.0859 105.673 34.9141C105.501 34.7422 105.266 34.5938 104.969 34.4688C104.688 34.3438 104.376 34.25 104.032 34.1875C103.594 34.125 102.837 34.0938 101.759 34.0938H101.313L101.665 31.4219L111.415 30.0625C111.415 30.2031 111.399 30.3203 111.368 30.4141C111.352 30.5078 111.321 30.7266 111.274 31.0703C111.227 31.3984 111.18 31.9688 111.134 32.7812C111.009 34.9531 110.946 37.875 110.946 41.5469V62.9219C110.946 64.1406 111.079 65 111.344 65.5C111.626 66 112.016 66.25 112.516 66.25C113.173 66.25 113.923 66.1016 114.766 65.8047L115.446 65.5938C115.415 65.7812 115.384 66.0469 115.352 66.3906C115.337 66.7188 115.313 67.0625 115.282 67.4219C115.251 67.7812 115.227 68.1719 115.212 68.5938L107.852 70.4219C107.68 70.3438 107.438 69.8672 107.126 68.9922C106.829 68.1172 106.626 67.4766 106.516 67.0703C104.532 68.4766 102.423 69.4688 100.188 70.0469C99.407 70.25 98.4617 70.3516 97.3523 70.3516C96.2429 70.3516 95.032 70.0703 93.7195 69.5078C92.407 68.9453 91.2742 68.1094 90.321 67C88.2429 64.6406 87.2039 61.3828 87.2039 57.2266C87.2039 54.5078 87.8289 51.9297 89.0789 49.4922C90.9539 45.8203 93.7273 43.4062 97.3992 42.25ZM99.0867 66.0625C99.9617 66.0312 100.805 65.9297 101.618 65.7578C102.43 65.5859 103.165 65.3906 103.821 65.1719C105.212 64.7188 106.063 64.3359 106.376 64.0234L106.329 64.0469V47.0078C105.641 45.9766 104.321 45.25 102.368 44.8281C101.805 44.7031 101.071 44.6406 100.165 44.6406C99.2585 44.6406 98.2742 44.8516 97.2117 45.2734C96.1648 45.6797 95.2664 46.3516 94.5164 47.2891C92.9539 49.2422 92.1726 52.3047 92.1726 56.4766C92.1726 59.2891 92.8835 61.625 94.3054 63.4844C95.6648 65.25 97.2585 66.1094 99.0867 66.0625Z" fill="#00FFD1"/>
</g>
<defs>
<filter id="filter0_d_206_4834" x="0" y="22.832" width="119.446" height="62.6611" filterUnits="userSpaceOnUse" color-interpolation-filters="sRGB">
<feFlood flood-opacity="0" result="BackgroundImageFix"/>
<feColorMatrix in="SourceAlpha" type="matrix" values="0 0 0 0 0 0 0 0 0 0 0 0 0 0 0 0 0 0 127 0" result="hardAlpha"/>
<feOffset dy="4"/>
<feGaussianBlur stdDeviation="2"/>
<feComposite in2="hardAlpha" operator="out"/>
<feColorMatrix type="matrix" values="0 0 0 0 0 0 0 0 0 0 0 0 0 0 0 0 0 0 0.25 0"/>
<feBlend mode="normal" in2="BackgroundImageFix" result="effect1_dropShadow_206_4834"/>
<feBlend mode="normal" in="SourceGraphic" in2="effect1_dropShadow_206_4834" result="shape"/>
</filter>
</defs>
</svg>
